<?xml version="1.0" encoding="utf-8" standalone="no"?>
<!DOCTYPE svg PUBLIC "-//W3C//DTD SVG 1.1//EN"
  "http://www.w3.org/Graphics/SVG/1.1/DTD/svg11.dtd">
<!-- Created with matplotlib (https://matplotlib.org/) -->
<svg height="357.489912pt" version="1.1" viewBox="0 0 464.360602 357.489912" width="464.360602pt" xmlns="http://www.w3.org/2000/svg" xmlns:xlink="http://www.w3.org/1999/xlink">
 <defs>
  <style type="text/css">
*{stroke-linecap:butt;stroke-linejoin:round;}
  </style>
 </defs>
 <g id="figure_1">
  <g id="patch_1">
   <path d="M 0 357.489912 
L 464.360602 357.489912 
L 464.360602 -0 
L 0 -0 
z
" style="fill:none;"/>
  </g>
  <g id="axes_1">
   <g id="patch_2">
    <path d="M 56.264602 317.664 
L 457.160602 317.664 
L 457.160602 61.056 
L 56.264602 61.056 
z
" style="fill:none;"/>
   </g>
   <g id="matplotlib.axis_1">
    <g id="xtick_1">
     <g id="line2d_1"/>
     <g id="text_1">
      <!-- $\mathdefault{0}$ -->
      <defs>
       <path d="M 42 31.640625 
C 42 37.75 41.90625 48.125 37.703125 56.109375 
C 34 63.109375 28.09375 65.59375 22.90625 65.59375 
C 18.09375 65.59375 12 63.40625 8.203125 56.203125 
C 4.203125 48.71875 3.796875 39.4375 3.796875 31.640625 
C 3.796875 25.953125 3.90625 17.28125 7 9.671875 
C 11.296875 -0.609375 19 -2 22.90625 -2 
C 27.5 -2 34.5 -0.109375 38.59375 9.375 
C 41.59375 16.28125 42 24.359375 42 31.640625 
z
M 22.90625 -0.40625 
C 16.5 -0.40625 12.703125 5.078125 11.296875 12.6875 
C 10.203125 18.5625 10.203125 27.15625 10.203125 32.75 
C 10.203125 40.4375 10.203125 46.828125 11.5 52.921875 
C 13.40625 61.390625 19 64 22.90625 64 
C 27 64 32.296875 61.296875 34.203125 53.125 
C 35.5 47.4375 35.59375 40.734375 35.59375 32.75 
C 35.59375 26.25 35.59375 18.265625 34.40625 12.375 
C 32.296875 1.484375 26.40625 -0.40625 22.90625 -0.40625 
z
" id="CMR17-48"/>
      </defs>
      <g style="fill:#262626;" transform="translate(64.932283 328.798802)scale(0.08 -0.08)">
       <use transform="scale(0.996264)" xlink:href="#CMR17-48"/>
      </g>
     </g>
    </g>
    <g id="xtick_2">
     <g id="line2d_2"/>
     <g id="text_2">
      <!-- $\mathdefault{1}$ -->
      <defs>
       <path d="M 26.59375 63.40625 
C 26.59375 65.5 26.5 65.5 25.09375 65.5 
C 21.203125 61.1875 15.296875 59.796875 9.703125 59.796875 
C 9.40625 59.796875 8.90625 59.796875 8.796875 59.5 
C 8.703125 59.296875 8.703125 59.09375 8.703125 57 
C 11.796875 57 17 57.59375 21 59.984375 
L 21 7.203125 
C 21 3.6875 20.796875 2.5 12.203125 2.5 
L 9.203125 2.5 
L 9.203125 0 
C 14 0 19 0 23.796875 0 
C 28.59375 0 33.59375 0 38.40625 0 
L 38.40625 2.5 
L 35.40625 2.5 
C 26.796875 2.5 26.59375 3.59375 26.59375 7.15625 
z
" id="CMR17-49"/>
      </defs>
      <g style="fill:#262626;" transform="translate(139.310019 328.798802)scale(0.08 -0.08)">
       <use transform="scale(0.996264)" xlink:href="#CMR17-49"/>
      </g>
     </g>
    </g>
    <g id="xtick_3">
     <g id="line2d_3"/>
     <g id="text_3">
      <!-- $\mathdefault{2}$ -->
      <defs>
       <path d="M 41.703125 15.453125 
L 39.90625 15.453125 
C 38.90625 8.375 38.09375 7.171875 37.703125 6.5625 
C 37.203125 5.765625 30 5.765625 28.59375 5.765625 
L 9.40625 5.765625 
C 13 9.671875 20 16.75 28.5 24.953125 
C 34.59375 30.734375 41.703125 37.53125 41.703125 47.421875 
C 41.703125 59.21875 32.296875 66 21.796875 66 
C 10.796875 66 4.09375 56.3125 4.09375 47.34375 
C 4.09375 43.4375 7 42.9375 8.203125 42.9375 
C 9.203125 42.9375 12.203125 43.546875 12.203125 47.03125 
C 12.203125 50.109375 9.59375 51 8.203125 51 
C 7.59375 51 7 50.90625 6.59375 50.703125 
C 8.5 59.21875 14.296875 63.40625 20.40625 63.40625 
C 29.09375 63.40625 34.796875 56.515625 34.796875 47.421875 
C 34.796875 38.734375 29.703125 31.25 24 24.75 
L 4.09375 2.28125 
L 4.09375 0 
L 39.296875 0 
z
" id="CMR17-50"/>
      </defs>
      <g style="fill:#262626;" transform="translate(213.687756 328.798802)scale(0.08 -0.08)">
       <use transform="scale(0.996264)" xlink:href="#CMR17-50"/>
      </g>
     </g>
    </g>
    <g id="xtick_4">
     <g id="line2d_4"/>
     <g id="text_4">
      <!-- $\mathdefault{3}$ -->
      <defs>
       <path d="M 22.09375 33.703125 
C 31 33.703125 34.90625 25.96875 34.90625 17.03125 
C 34.90625 5 28.5 0.390625 22.703125 0.390625 
C 17.40625 0.390625 8.796875 3.03125 6.09375 10.828125 
C 6.59375 10.625 7.09375 10.625 7.59375 10.625 
C 10 10.625 11.796875 12.21875 11.796875 14.8125 
C 11.796875 17.703125 9.59375 19 7.59375 19 
C 5.90625 19 3.296875 18.203125 3.296875 14.46875 
C 3.296875 5.234375 12.296875 -2 22.90625 -2 
C 34 -2 42.5 6.71875 42.5 16.953125 
C 42.5 26.671875 34.5 33.703125 25 34.796875 
C 32.59375 36.375 39.90625 43.0625 39.90625 52.015625 
C 39.90625 59.6875 32 65.296875 23 65.296875 
C 13.90625 65.296875 5.90625 59.828125 5.90625 52.015625 
C 5.90625 48.59375 8.5 48 9.796875 48 
C 11.90625 48 13.703125 49.296875 13.703125 51.890625 
C 13.703125 54.46875 11.90625 55.765625 9.796875 55.765625 
C 9.40625 55.765625 8.90625 55.765625 8.5 55.578125 
C 11.40625 61.859375 19.296875 63 22.796875 63 
C 26.296875 63 32.90625 61.328125 32.90625 51.875 
C 32.90625 49.109375 32.5 44.1875 29.09375 39.84375 
C 26.09375 36 22.703125 36 19.40625 35.6875 
C 18.90625 35.6875 16.59375 35.453125 16.203125 35.453125 
C 15.5 35.359375 15.09375 35.265625 15.09375 34.5 
C 15.09375 33.796875 15.203125 33.703125 17.203125 33.703125 
z
" id="CMR17-51"/>
      </defs>
      <g style="fill:#262626;" transform="translate(288.065492 328.798802)scale(0.08 -0.08)">
       <use transform="scale(0.996264)" xlink:href="#CMR17-51"/>
      </g>
     </g>
    </g>
    <g id="xtick_5">
     <g id="line2d_5"/>
     <g id="text_5">
      <!-- $\mathdefault{4}$ -->
      <defs>
       <path d="M 33.59375 64.40625 
C 33.59375 66.5 33.5 66.5 31.703125 66.5 
L 2 19.59375 
L 2 17 
L 27.796875 17 
L 27.796875 7.140625 
C 27.796875 3.5 27.59375 2.5 20.59375 2.5 
L 18.703125 2.5 
L 18.703125 0 
C 21.90625 0 27.296875 0 30.703125 0 
C 34.09375 0 39.5 0 42.703125 0 
L 42.703125 2.5 
L 40.796875 2.5 
C 33.796875 2.5 33.59375 3.5 33.59375 7.140625 
L 33.59375 17 
L 43.796875 17 
L 43.796875 19.59375 
L 33.59375 19.59375 
z
M 28.09375 57.859375 
L 28.09375 19.59375 
L 4 19.59375 
z
" id="CMR17-52"/>
      </defs>
      <g style="fill:#262626;" transform="translate(362.443229 328.798802)scale(0.08 -0.08)">
       <use transform="scale(0.996264)" xlink:href="#CMR17-52"/>
      </g>
     </g>
    </g>
    <g id="xtick_6">
     <g id="line2d_6"/>
     <g id="text_6">
      <!-- $\mathdefault{5}$ -->
      <defs>
       <path d="M 11.40625 57.6875 
C 12.40625 57.28125 16.5 56 20.703125 56 
C 30 56 35.09375 61.109375 38 64.0625 
C 38 64.953125 38 65.5 37.40625 65.5 
C 37.296875 65.5 37.09375 65.5 36.296875 65.046875 
C 32.796875 63.40625 28.703125 62.078125 23.703125 62.078125 
C 20.703125 62.078125 16.203125 62.484375 11.296875 64.671875 
C 10.203125 65.171875 10 65.171875 9.90625 65.171875 
C 9.40625 65.171875 9.296875 65.0625 9.296875 63.078125 
L 9.296875 34.421875 
C 9.296875 32.640625 9.296875 32.140625 10.296875 32.140625 
C 10.796875 32.140625 11 32.34375 11.5 33.03125 
C 14.703125 37.515625 19.09375 39.40625 24.09375 39.40625 
C 27.59375 39.40625 35.09375 37.21875 35.09375 20.140625 
C 35.09375 16.953125 35.09375 11.171875 32.09375 6.578125 
C 29.59375 2.484375 25.703125 0.390625 21.40625 0.390625 
C 14.796875 0.390625 8.09375 5 6.296875 12.71875 
C 6.703125 12.609375 7.5 12.421875 7.90625 12.421875 
C 9.203125 12.421875 11.703125 13.125 11.703125 16.21875 
C 11.703125 18.90625 9.796875 20 7.90625 20 
C 5.59375 20 4.09375 18.59375 4.09375 15.796875 
C 4.09375 7.09375 11 -2 21.59375 -2 
C 31.90625 -2 41.703125 6.875 41.703125 19.75 
C 41.703125 31.71875 33.90625 41 24.203125 41 
C 19.09375 41 14.796875 39.109375 11.40625 35.53125 
z
" id="CMR17-53"/>
      </defs>
      <g style="fill:#262626;" transform="translate(436.820965 328.798802)scale(0.08 -0.08)">
       <use transform="scale(0.996264)" xlink:href="#CMR17-53"/>
      </g>
     </g>
    </g>
    <g id="text_7">
     <!-- $\tau$ -->
     <defs>
      <path d="M 28.703125 37.625 
L 45.296875 37.625 
C 46.59375 37.625 49.90625 37.625 49.90625 40.8125 
C 49.90625 43 48 43 46.203125 43 
L 18.703125 43 
C 16.40625 43 13 43 8.40625 38.125 
C 5.796875 35.234375 2.59375 29.953125 2.59375 29.359375 
C 2.59375 28.765625 3.09375 28.5625 3.703125 28.5625 
C 4.40625 28.5625 4.5 28.859375 5 29.453125 
C 10.203125 37.625 15.40625 37.625 17.90625 37.625 
L 26.203125 37.625 
L 15.796875 3.484375 
C 15.296875 1.984375 15.296875 1.78125 15.296875 1.484375 
C 15.296875 0.390625 16 -1 18 -1 
C 21.09375 -1 21.59375 1.6875 21.90625 3.171875 
z
" id="CMMI12-28"/>
     </defs>
     <g style="fill:#262626;" transform="translate(252.899859 346.801848)scale(0.18 -0.18)">
      <use transform="scale(0.996264)" xlink:href="#CMMI12-28"/>
     </g>
    </g>
   </g>
   <g id="matplotlib.axis_2">
    <g id="ytick_1">
     <g id="line2d_7"/>
     <g id="text_8">
      <!-- $\mathdefault{0.0020}$ -->
      <defs>
       <path d="M 18.40625 4.796875 
C 18.40625 7.6875 16 9.671875 13.59375 9.671875 
C 10.703125 9.671875 8.703125 7.28125 8.703125 4.890625 
C 8.703125 2 11.09375 0 13.5 0 
C 16.40625 0 18.40625 2.390625 18.40625 4.796875 
z
" id="CMMI12-58"/>
      </defs>
      <g style="fill:#262626;" transform="translate(27.141364 293.338936)scale(0.08 -0.08)">
       <use transform="scale(0.996264)" xlink:href="#CMR17-48"/>
       <use transform="translate(45.690477 0)scale(0.996264)" xlink:href="#CMMI12-58"/>
       <use transform="translate(72.787654 0)scale(0.996264)" xlink:href="#CMR17-48"/>
       <use transform="translate(118.478131 0)scale(0.996264)" xlink:href="#CMR17-48"/>
       <use transform="translate(164.168608 0)scale(0.996264)" xlink:href="#CMR17-50"/>
       <use transform="translate(209.859086 0)scale(0.996264)" xlink:href="#CMR17-48"/>
      </g>
     </g>
    </g>
    <g id="ytick_2">
     <g id="line2d_8"/>
     <g id="text_9">
      <!-- $\mathdefault{0.0025}$ -->
      <g style="fill:#262626;" transform="translate(27.141364 263.63987)scale(0.08 -0.08)">
       <use transform="scale(0.996264)" xlink:href="#CMR17-48"/>
       <use transform="translate(45.690477 0)scale(0.996264)" xlink:href="#CMMI12-58"/>
       <use transform="translate(72.787654 0)scale(0.996264)" xlink:href="#CMR17-48"/>
       <use transform="translate(118.478131 0)scale(0.996264)" xlink:href="#CMR17-48"/>
       <use transform="translate(164.168608 0)scale(0.996264)" xlink:href="#CMR17-50"/>
       <use transform="translate(209.859086 0)scale(0.996264)" xlink:href="#CMR17-53"/>
      </g>
     </g>
    </g>
    <g id="ytick_3">
     <g id="line2d_9"/>
     <g id="text_10">
      <!-- $\mathdefault{0.0030}$ -->
      <g style="fill:#262626;" transform="translate(27.141364 233.940803)scale(0.08 -0.08)">
       <use transform="scale(0.996264)" xlink:href="#CMR17-48"/>
       <use transform="translate(45.690477 0)scale(0.996264)" xlink:href="#CMMI12-58"/>
       <use transform="translate(72.787654 0)scale(0.996264)" xlink:href="#CMR17-48"/>
       <use transform="translate(118.478131 0)scale(0.996264)" xlink:href="#CMR17-48"/>
       <use transform="translate(164.168608 0)scale(0.996264)" xlink:href="#CMR17-51"/>
       <use transform="translate(209.859086 0)scale(0.996264)" xlink:href="#CMR17-48"/>
      </g>
     </g>
    </g>
    <g id="ytick_4">
     <g id="line2d_10"/>
     <g id="text_11">
      <!-- $\mathdefault{0.0035}$ -->
      <g style="fill:#262626;" transform="translate(27.141364 204.241737)scale(0.08 -0.08)">
       <use transform="scale(0.996264)" xlink:href="#CMR17-48"/>
       <use transform="translate(45.690477 0)scale(0.996264)" xlink:href="#CMMI12-58"/>
       <use transform="translate(72.787654 0)scale(0.996264)" xlink:href="#CMR17-48"/>
       <use transform="translate(118.478131 0)scale(0.996264)" xlink:href="#CMR17-48"/>
       <use transform="translate(164.168608 0)scale(0.996264)" xlink:href="#CMR17-51"/>
       <use transform="translate(209.859086 0)scale(0.996264)" xlink:href="#CMR17-53"/>
      </g>
     </g>
    </g>
    <g id="ytick_5">
     <g id="line2d_11"/>
     <g id="text_12">
      <!-- $\mathdefault{0.0040}$ -->
      <g style="fill:#262626;" transform="translate(27.141364 174.54267)scale(0.08 -0.08)">
       <use transform="scale(0.996264)" xlink:href="#CMR17-48"/>
       <use transform="translate(45.690477 0)scale(0.996264)" xlink:href="#CMMI12-58"/>
       <use transform="translate(72.787654 0)scale(0.996264)" xlink:href="#CMR17-48"/>
       <use transform="translate(118.478131 0)scale(0.996264)" xlink:href="#CMR17-48"/>
       <use transform="translate(164.168608 0)scale(0.996264)" xlink:href="#CMR17-52"/>
       <use transform="translate(209.859086 0)scale(0.996264)" xlink:href="#CMR17-48"/>
      </g>
     </g>
    </g>
    <g id="ytick_6">
     <g id="line2d_12"/>
     <g id="text_13">
      <!-- $\mathdefault{0.0045}$ -->
      <g style="fill:#262626;" transform="translate(27.141364 144.843604)scale(0.08 -0.08)">
       <use transform="scale(0.996264)" xlink:href="#CMR17-48"/>
       <use transform="translate(45.690477 0)scale(0.996264)" xlink:href="#CMMI12-58"/>
       <use transform="translate(72.787654 0)scale(0.996264)" xlink:href="#CMR17-48"/>
       <use transform="translate(118.478131 0)scale(0.996264)" xlink:href="#CMR17-48"/>
       <use transform="translate(164.168608 0)scale(0.996264)" xlink:href="#CMR17-52"/>
       <use transform="translate(209.859086 0)scale(0.996264)" xlink:href="#CMR17-53"/>
      </g>
     </g>
    </g>
    <g id="ytick_7">
     <g id="line2d_13"/>
     <g id="text_14">
      <!-- $\mathdefault{0.0050}$ -->
      <g style="fill:#262626;" transform="translate(27.141364 115.144537)scale(0.08 -0.08)">
       <use transform="scale(0.996264)" xlink:href="#CMR17-48"/>
       <use transform="translate(45.690477 0)scale(0.996264)" xlink:href="#CMMI12-58"/>
       <use transform="translate(72.787654 0)scale(0.996264)" xlink:href="#CMR17-48"/>
       <use transform="translate(118.478131 0)scale(0.996264)" xlink:href="#CMR17-48"/>
       <use transform="translate(164.168608 0)scale(0.996264)" xlink:href="#CMR17-53"/>
       <use transform="translate(209.859086 0)scale(0.996264)" xlink:href="#CMR17-48"/>
      </g>
     </g>
    </g>
    <g id="ytick_8">
     <g id="line2d_14"/>
     <g id="text_15">
      <!-- $\mathdefault{0.0055}$ -->
      <g style="fill:#262626;" transform="translate(27.141364 85.445471)scale(0.08 -0.08)">
       <use transform="scale(0.996264)" xlink:href="#CMR17-48"/>
       <use transform="translate(45.690477 0)scale(0.996264)" xlink:href="#CMMI12-58"/>
       <use transform="translate(72.787654 0)scale(0.996264)" xlink:href="#CMR17-48"/>
       <use transform="translate(118.478131 0)scale(0.996264)" xlink:href="#CMR17-48"/>
       <use transform="translate(164.168608 0)scale(0.996264)" xlink:href="#CMR17-53"/>
       <use transform="translate(209.859086 0)scale(0.996264)" xlink:href="#CMR17-53"/>
      </g>
     </g>
    </g>
    <g id="text_16">
     <!-- $\sigma$ -->
     <defs>
      <path d="M 50.796875 37.625 
C 52.09375 37.625 55.40625 37.625 55.40625 40.8125 
C 55.40625 43 53.5 43 51.703125 43 
L 29.59375 43 
C 14.59375 43 3.796875 26.34375 3.796875 14.5625 
C 3.796875 6.09375 9.296875 -1 18.296875 -1 
C 30.09375 -1 43 11.671875 43 26.640625 
C 43 30.53125 42.09375 34.3125 39.703125 37.625 
z
M 18.40625 1 
C 13.296875 1 9.59375 4.890625 9.59375 11.78125 
C 9.59375 17.765625 13.203125 37.625 27.90625 37.625 
C 32.203125 37.625 37 35.53125 37 27.828125 
C 37 24.34375 35.40625 15.953125 31.90625 10.1875 
C 28.296875 4.296875 22.90625 1 18.40625 1 
z
" id="CMMI12-27"/>
     </defs>
     <g style="fill:#262626;" transform="translate(19.6533 194.350091)rotate(-90)scale(0.18 -0.18)">
      <use transform="scale(0.996264)" xlink:href="#CMMI12-27"/>
     </g>
    </g>
   </g>
   <g id="line2d_15">
    <path clip-path="url(#p50bf832bb1)" d="M 74.487148 290.725276 
L 87.054421 208.979435 
L 99.621693 143.221462 
L 112.188966 115.165406 
L 124.756239 90.777006 
L 137.323511 81.865695 
L 149.890784 82.517856 
L 162.458057 79.678637 
L 175.02533 77.113299 
L 187.592602 78.317283 
L 200.159875 77.200332 
L 212.727148 76.967492 
L 225.294421 76.265462 
L 237.861693 76.242458 
L 250.428966 77.468158 
L 262.996239 75.662863 
L 275.563511 75.669872 
L 288.130784 75.393224 
L 300.698057 76.008707 
L 313.26533 76.229368 
L 325.832602 74.996092 
L 338.399875 74.837341 
L 350.967148 74.882165 
L 363.534421 75.562927 
L 376.101693 75.05256 
L 388.668966 73.913267 
L 401.236239 73.969242 
L 413.803511 73.391069 
L 426.370784 73.510603 
L 438.938057 72.72 
" style="fill:none;stroke:#92c6ff;stroke-linecap:round;stroke-width:1.4;"/>
   </g>
   <g id="line2d_16">
    <path clip-path="url(#p50bf832bb1)" d="M 74.487148 306 
L 87.054421 209.839888 
L 99.621693 161.322312 
L 112.188966 135.546819 
L 124.756239 121.473278 
L 137.323511 113.66647 
L 149.890784 109.294461 
L 162.458057 106.831639 
L 175.02533 105.439214 
L 187.592602 104.650152 
L 200.159875 104.20235 
L 212.727148 103.947978 
L 225.294421 103.803394 
L 237.861693 103.721181 
L 250.428966 103.674421 
L 262.996239 103.64782 
L 275.563511 103.632686 
L 288.130784 103.624075 
L 300.698057 103.619176 
L 313.26533 103.616388 
L 325.832602 103.614801 
L 338.399875 103.613898 
L 350.967148 103.613384 
L 363.534421 103.613092 
L 376.101693 103.612926 
L 388.668966 103.612831 
L 401.236239 103.612777 
L 413.803511 103.612746 
L 426.370784 103.612729 
L 438.938057 103.612719 
" style="fill:none;stroke:#ffa500;stroke-linecap:round;stroke-width:1.4;"/>
   </g>
   <g id="patch_3">
    <path d="M 56.264602 317.664 
L 56.264602 61.056 
" style="fill:none;stroke:#000000;stroke-linecap:square;stroke-linejoin:miter;"/>
   </g>
   <g id="patch_4">
    <path d="M 457.160602 317.664 
L 457.160602 61.056 
" style="fill:none;stroke:#000000;stroke-linecap:square;stroke-linejoin:miter;"/>
   </g>
   <g id="patch_5">
    <path d="M 56.264602 317.664 
L 457.160602 317.664 
" style="fill:none;stroke:#000000;stroke-linecap:square;stroke-linejoin:miter;"/>
   </g>
   <g id="patch_6">
    <path d="M 56.264602 61.056 
L 457.160602 61.056 
" style="fill:none;stroke:#000000;stroke-linecap:square;stroke-linejoin:miter;"/>
   </g>
   <g id="text_17">
    <!-- $T_g=1.0|1.0|1.0|1.0|1.0|1.1|1.1|1.1|1.1|1.1\quad T_p=1.0\quad $ -->
    <defs>
     <path d="M 41.703125 61.09375 
C 42.296875 63.5 42.5 64.390625 44 64.796875 
C 44.796875 65 48.09375 65 50.203125 65 
C 60.203125 65 64.90625 64.59375 64.90625 56.78125 
C 64.90625 55.265625 64.5 51.484375 63.90625 47.765625 
L 63.796875 46.5625 
C 63.796875 46.15625 64.203125 45.5625 64.796875 45.5625 
C 65.796875 45.5625 65.796875 46.0625 66.09375 47.65625 
L 69 65.375 
C 69.203125 66.296875 69.203125 66.5 69.203125 66.796875 
C 69.203125 67.890625 68.59375 67.890625 66.59375 67.890625 
L 11.90625 67.890625 
C 9.59375 67.890625 9.5 67.796875 8.90625 66 
L 2.796875 47.96875 
C 2.703125 47.75 2.40625 46.65625 2.40625 46.5625 
C 2.40625 46.0625 2.796875 45.5625 3.40625 45.5625 
C 4.203125 45.5625 4.40625 45.953125 4.796875 47.25 
C 9 59.390625 11.09375 65 24.40625 65 
L 31.09375 65 
C 33.5 65 34.5 65 34.5 63.890625 
C 34.5 63.578125 34.5 63.390625 34 61.578125 
L 20.59375 7.796875 
C 19.59375 3.890625 19.40625 2.890625 8.796875 2.890625 
C 6.296875 2.890625 5.59375 2.890625 5.59375 1 
C 5.59375 0 6.703125 0 7.203125 0 
C 9.703125 0 12.296875 0 14.796875 0 
L 30.40625 0 
C 32.90625 0 35.59375 0 38.09375 0 
C 39.203125 0 40.203125 0 40.203125 1.890625 
C 40.203125 2.890625 39.5 2.890625 36.90625 2.890625 
C 27.90625 2.890625 27.90625 3.796875 27.90625 5.296875 
C 27.90625 5.40625 27.90625 6.109375 28.296875 7.71875 
z
" id="CMMI12-84"/>
     <path d="M 33.796875 12.671875 
C 33.40625 11.078125 33.203125 10.671875 31.90625 9.1875 
C 27.796875 3.890625 23.59375 2 20.5 2 
C 17.203125 2 14.09375 4.59375 14.09375 11.46875 
C 14.09375 16.765625 17.09375 27.9375 19.296875 32.4375 
C 22.203125 38.015625 26.703125 42.015625 30.90625 42.015625 
C 37.5 42.015625 38.796875 33.828125 38.796875 33.234375 
L 38.5 31.828125 
z
M 40 37.421875 
C 38.703125 40.3125 35.90625 44 30.90625 44 
C 20 44 7.59375 30.328125 7.59375 15.46875 
C 7.59375 5.09375 13.90625 0 20.296875 0 
C 25.59375 0 30.296875 4.1875 32.09375 6.1875 
L 29.90625 -2.671875 
C 28.5 -8.0625 27.90625 -10.53125 24.296875 -13.96875 
C 20.203125 -18 16.40625 -18 14.203125 -18 
C 11.203125 -18 8.703125 -17.796875 6.203125 -17.015625 
C 9.40625 -16.140625 10.203125 -13.40625 10.203125 -12.328125 
C 10.203125 -10.765625 9 -9.1875 6.796875 -9.1875 
C 4.40625 -9.1875 1.796875 -11.15625 1.796875 -14.40625 
C 1.796875 -18.4375 5.90625 -20 14.40625 -20 
C 27.296875 -20 34 -11.765625 35.296875 -6.40625 
L 46.40625 38.046875 
C 46.703125 39.234375 46.703125 39.4375 46.703125 39.625 
C 46.703125 41.015625 45.59375 42.109375 44.09375 42.109375 
C 41.703125 42.109375 40.296875 40.109375 40 37.421875 
z
" id="CMMI12-103"/>
     <path d="M 64.296875 31.515625 
C 65.796875 31.515625 67.296875 31.515625 67.296875 33.203125 
C 67.296875 35 65.59375 35 63.90625 35 
L 8 35 
C 6.296875 35 4.59375 35 4.59375 33.203125 
C 4.59375 31.515625 6.09375 31.515625 7.59375 31.515625 
z
M 63.90625 14 
C 65.59375 14 67.296875 14 67.296875 15.796875 
C 67.296875 17.484375 65.796875 17.484375 64.296875 17.484375 
L 7.59375 17.484375 
C 6.09375 17.484375 4.59375 17.484375 4.59375 15.796875 
C 4.59375 14 6.296875 14 8 14 
z
" id="CMR17-61"/>
     <path d="M 15.90625 71.40625 
C 15.90625 73.203125 15.90625 75 13.90625 75 
C 11.90625 75 11.90625 73.203125 11.90625 71.40625 
L 11.90625 -21.40625 
C 11.90625 -23.203125 11.90625 -25 13.90625 -25 
C 15.90625 -25 15.90625 -23.203125 15.90625 -21.40625 
z
" id="CMSY10-106"/>
     <path d="M 4.296875 -12.328125 
C 3.59375 -15.3125 3.203125 -16.109375 -0.90625 -16.109375 
C -2.09375 -16.109375 -3.09375 -16.109375 -3.09375 -18 
C -3.09375 -18.203125 -3 -19 -1.90625 -19 
C -0.59375 -19 0.796875 -19 2.09375 -19 
L 6.40625 -19 
C 8.5 -19 13.59375 -19 15.703125 -19 
C 16.296875 -19 17.5 -19 17.5 -17.203125 
C 17.5 -16.109375 16.796875 -16.109375 15.09375 -16.109375 
C 10.5 -16.109375 10.203125 -15.421875 10.203125 -14.640625 
C 10.203125 -13.453125 14.703125 3.421875 15.296875 5.6875 
C 16.40625 2.890625 19.09375 -1 24.296875 -1 
C 35.59375 -1 47.796875 13.671875 47.796875 28.34375 
C 47.796875 37.515625 42.59375 44 35.09375 44 
C 28.703125 44 23.296875 37.8125 22.203125 36.421875 
C 21.40625 41.40625 17.5 44 13.5 44 
C 10.59375 44 8.296875 42.609375 6.40625 38.8125 
C 4.59375 35.21875 3.203125 29.140625 3.203125 28.734375 
C 3.203125 28.34375 3.59375 27.84375 4.296875 27.84375 
C 5.09375 27.84375 5.203125 27.9375 5.796875 30.234375 
C 7.296875 36.125 9.203125 42.015625 13.203125 42.015625 
C 15.5 42.015625 16.296875 40.421875 16.296875 37.453125 
C 16.296875 35.078125 16 34.078125 15.59375 32.296875 
z
M 21.59375 31.140625 
C 22.296875 33.921875 25.09375 36.828125 26.703125 38.21875 
C 27.796875 39.21875 31.09375 42.015625 34.90625 42.015625 
C 39.296875 42.015625 41.296875 37.625 41.296875 32.4375 
C 41.296875 27.640625 38.5 16.359375 36 11.171875 
C 33.5 5.78125 28.90625 1 24.296875 1 
C 17.5 1 16.40625 9.578125 16.40625 9.984375 
C 16.40625 10.28125 16.59375 11.078125 16.703125 11.578125 
z
" id="CMMI12-112"/>
    </defs>
    <g style="fill:#262626;" transform="translate(146.785344 46.056)scale(0.096 -0.096)">
     <use transform="scale(0.996264)" xlink:href="#CMMI12-84"/>
     <use transform="translate(57.175044 -14.943915)scale(0.697382)" xlink:href="#CMMI12-103"/>
     <use transform="translate(120.546866 0)scale(0.996264)" xlink:href="#CMR17-61"/>
     <use transform="translate(219.935663 0)scale(0.996264)" xlink:href="#CMR17-49"/>
     <use transform="translate(265.62614 0)scale(0.996264)" xlink:href="#CMMI12-58"/>
     <use transform="translate(292.723317 0)scale(0.996264)" xlink:href="#CMR17-48"/>
     <use transform="translate(338.413794 0)scale(0.996264)" xlink:href="#CMSY10-106"/>
     <use transform="translate(366.087879 0)scale(0.996264)" xlink:href="#CMR17-49"/>
     <use transform="translate(411.778356 0)scale(0.996264)" xlink:href="#CMMI12-58"/>
     <use transform="translate(438.875533 0)scale(0.996264)" xlink:href="#CMR17-48"/>
     <use transform="translate(484.56601 0)scale(0.996264)" xlink:href="#CMSY10-106"/>
     <use transform="translate(512.240095 0)scale(0.996264)" xlink:href="#CMR17-49"/>
     <use transform="translate(557.930572 0)scale(0.996264)" xlink:href="#CMMI12-58"/>
     <use transform="translate(585.027749 0)scale(0.996264)" xlink:href="#CMR17-48"/>
     <use transform="translate(630.718226 0)scale(0.996264)" xlink:href="#CMSY10-106"/>
     <use transform="translate(658.392311 0)scale(0.996264)" xlink:href="#CMR17-49"/>
     <use transform="translate(704.082788 0)scale(0.996264)" xlink:href="#CMMI12-58"/>
     <use transform="translate(731.179965 0)scale(0.996264)" xlink:href="#CMR17-48"/>
     <use transform="translate(776.870443 0)scale(0.996264)" xlink:href="#CMSY10-106"/>
     <use transform="translate(804.544527 0)scale(0.996264)" xlink:href="#CMR17-49"/>
     <use transform="translate(850.235004 0)scale(0.996264)" xlink:href="#CMMI12-58"/>
     <use transform="translate(877.332181 0)scale(0.996264)" xlink:href="#CMR17-48"/>
     <use transform="translate(923.022659 0)scale(0.996264)" xlink:href="#CMSY10-106"/>
     <use transform="translate(950.696743 0)scale(0.996264)" xlink:href="#CMR17-49"/>
     <use transform="translate(996.38722 0)scale(0.996264)" xlink:href="#CMMI12-58"/>
     <use transform="translate(1023.484397 0)scale(0.996264)" xlink:href="#CMR17-49"/>
     <use transform="translate(1069.174875 0)scale(0.996264)" xlink:href="#CMSY10-106"/>
     <use transform="translate(1096.848959 0)scale(0.996264)" xlink:href="#CMR17-49"/>
     <use transform="translate(1142.539436 0)scale(0.996264)" xlink:href="#CMMI12-58"/>
     <use transform="translate(1169.636614 0)scale(0.996264)" xlink:href="#CMR17-49"/>
     <use transform="translate(1215.327091 0)scale(0.996264)" xlink:href="#CMSY10-106"/>
     <use transform="translate(1243.001175 0)scale(0.996264)" xlink:href="#CMR17-49"/>
     <use transform="translate(1288.691653 0)scale(0.996264)" xlink:href="#CMMI12-58"/>
     <use transform="translate(1315.78883 0)scale(0.996264)" xlink:href="#CMR17-49"/>
     <use transform="translate(1361.479307 0)scale(0.996264)" xlink:href="#CMSY10-106"/>
     <use transform="translate(1389.153391 0)scale(0.996264)" xlink:href="#CMR17-49"/>
     <use transform="translate(1434.843869 0)scale(0.996264)" xlink:href="#CMMI12-58"/>
     <use transform="translate(1461.941046 0)scale(0.996264)" xlink:href="#CMR17-49"/>
     <use transform="translate(1507.631523 0)scale(0.996264)" xlink:href="#CMSY10-106"/>
     <use transform="translate(1535.305608 0)scale(0.996264)" xlink:href="#CMR17-49"/>
     <use transform="translate(1580.996085 0)scale(0.996264)" xlink:href="#CMMI12-58"/>
     <use transform="translate(1608.093262 0)scale(0.996264)" xlink:href="#CMR17-49"/>
     <use transform="translate(1747.471077 0)scale(0.996264)" xlink:href="#CMMI12-84"/>
     <use transform="translate(1804.646121 -14.943915)scale(0.697382)" xlink:href="#CMMI12-112"/>
     <use transform="translate(1867.089768 0)scale(0.996264)" xlink:href="#CMR17-61"/>
     <use transform="translate(1966.478565 0)scale(0.996264)" xlink:href="#CMR17-49"/>
     <use transform="translate(2012.169042 0)scale(0.996264)" xlink:href="#CMMI12-58"/>
     <use transform="translate(2039.266219 0)scale(0.996264)" xlink:href="#CMR17-48"/>
    </g>
   </g>
   <g id="legend_1">
    <g id="line2d_17">
     <path d="M 106.722713 279.036454 
L 130.722713 279.036454 
" style="fill:none;stroke:#92c6ff;stroke-linecap:round;stroke-width:1.4;"/>
    </g>
    <g id="line2d_18"/>
    <g id="text_18">
     <!-- $\sigma(\tau)=\frac{1}{\mu}\sum_{0}^{\mu}ln(\bm{p}_{\mu}(0))-ln(\bm{p}_{\mu}(\tau))+\psi_{\mu}(\bm{J};T_p)-\psi_{\mu}(\bm{J}^{\prime};T_p)$ -->
     <defs>
      <path d="M 30.59375 -24.390625 
C 30.59375 -24.296875 30.59375 -24.09375 30.296875 -23.796875 
C 25.703125 -19.125 13.40625 -6.359375 13.40625 24.703125 
C 13.40625 55.765625 25.5 68.421875 30.40625 73.390625 
C 30.40625 73.5 30.59375 73.703125 30.59375 74 
C 30.59375 74.296875 30.296875 74.5 29.90625 74.5 
C 28.796875 74.5 20.296875 67.125 15.40625 56.15625 
C 10.40625 45.109375 9 34.359375 9 24.8125 
C 9 17.625 9.703125 5.484375 15.703125 -7.359375 
C 20.5 -17.734375 28.703125 -25 29.90625 -25 
C 30.40625 -25 30.59375 -24.796875 30.59375 -24.390625 
z
" id="CMR17-40"/>
      <path d="M 26.296875 24.703125 
C 26.296875 31.875 25.59375 44.015625 19.59375 56.859375 
C 14.796875 67.234375 6.59375 74.5 5.40625 74.5 
C 5.09375 74.5 4.703125 74.390625 4.703125 73.890625 
C 4.703125 73.703125 4.796875 73.59375 4.90625 73.390625 
C 9.703125 68.40625 21.90625 55.75 21.90625 24.75 
C 21.90625 -6.359375 9.796875 -19.015625 4.90625 -24.015625 
C 4.796875 -24.203125 4.703125 -24.3125 4.703125 -24.5 
C 4.703125 -25 5.09375 -25 5.40625 -25 
C 6.5 -25 15 -17.625 19.90625 -6.65625 
C 24.90625 4.390625 26.296875 15.140625 26.296875 24.703125 
z
" id="CMR17-41"/>
      <path d="M 14.40625 2.1875 
C 16.90625 -0.09375 20.59375 -1 24 -1 
C 30.40625 -1 34.796875 3.25 37.09375 6.328125 
C 38.09375 1.078125 42.296875 -1 45.796875 -1 
C 48.796875 -1 51.203125 0.78125 53 4.328125 
C 54.59375 7.703125 56 13.734375 56 14.109375 
C 56 14.609375 55.59375 15 55 15 
C 54.09375 15 54 14.5 53.59375 13.03125 
C 52.09375 7.203125 50.203125 1 46.09375 1 
C 43.203125 1 43 3.578125 43 5.59375 
C 43 7.875 43.90625 11.484375 44.59375 14.46875 
L 47.40625 25.234375 
C 47.796875 27.140625 48.90625 31.609375 49.40625 33.421875 
C 50 35.8125 51.09375 40.109375 51.09375 40.5 
C 51.09375 42 49.90625 43 48.40625 43 
C 47.5 43 45.40625 42.59375 44.59375 39.609375 
L 37.59375 11.875 
C 37.09375 9.875 37.09375 9.671875 35.796875 8.078125 
C 34.59375 6.390625 30.703125 1 24.40625 1 
C 18.796875 1 17 5.09375 17 9.765625 
C 17 12.671875 17.90625 16.15625 18.296875 17.859375 
L 22.796875 35.828125 
C 23.296875 37.71875 24.09375 40.90625 24.09375 41.515625 
C 24.09375 43.109375 22.796875 44 21.5 44 
C 20.59375 44 18.40625 43.703125 17.59375 40.5 
L 3.09375 -17.296875 
C 3 -17.796875 2.796875 -18.390625 2.796875 -19 
C 2.796875 -20.5 4 -21.5 5.5 -21.5 
C 8.40625 -21.5 9 -19.1875 9.703125 -16.40625 
z
" id="CMMI12-22"/>
      <path d="M 42.09375 -53.40625 
L 6.59375 -97.296875 
C 5.796875 -98.296875 5.703125 -98.5 5.703125 -98.90625 
C 5.703125 -100 6.59375 -100 8.40625 -100 
L 91.296875 -100 
L 99.90625 -75.09375 
L 97.40625 -75.09375 
C 94.90625 -82.59375 88.203125 -88.703125 79.703125 -91.59375 
C 78.09375 -92.09375 71.203125 -94.5 56.5 -94.5 
L 14 -94.5 
L 48.703125 -51.59375 
C 49.40625 -50.703125 49.59375 -50.40625 49.59375 -50 
C 49.59375 -49.59375 49.5 -49.5 48.90625 -48.59375 
L 16.40625 -4 
L 56 -4 
C 67.40625 -4 90.40625 -4.703125 97.40625 -23.40625 
L 99.90625 -23.40625 
L 91.296875 0 
L 8.40625 0 
C 5.703125 0 5.59375 -0.09375 5.59375 -3.203125 
z
" id="CMEX10-80"/>
      <path d="M 25.40625 66.515625 
C 25.5 66.90625 25.703125 67.5 25.703125 68 
C 25.703125 69 24.703125 69 24.5 69 
C 24.40625 69 20.796875 68.640625 19 68.390625 
C 17.296875 68.390625 15.796875 68.09375 14 68.09375 
C 11.59375 67.890625 10.90625 67.796875 10.90625 66 
C 10.90625 65 11.90625 65 12.90625 65 
C 18 65 18 64.09375 18 63.109375 
C 18 62.71875 18 62.515625 17.5 60.734375 
L 5.09375 11.421875 
C 4.796875 10.328125 4.59375 9.53125 4.59375 7.953125 
C 4.59375 2.984375 8.296875 -1 13.40625 -1 
C 16.703125 -1 18.90625 1.1875 20.5 4.28125 
C 22.203125 7.546875 23.59375 13.8125 23.59375 14.203125 
C 23.59375 14.703125 23.203125 15.109375 22.59375 15.109375 
C 21.703125 15.109375 21.59375 14.609375 21.203125 13.125 
C 19.40625 6.265625 17.59375 1 13.59375 1 
C 10.59375 1 10.59375 4.171875 10.59375 5.578125 
C 10.59375 5.96875 10.59375 8.046875 11.296875 10.84375 
z
" id="CMMI12-108"/>
      <path d="M 20.59375 29.234375 
C 20.796875 29.84375 23.296875 34.828125 27 38.015625 
C 29.59375 40.40625 33 42.015625 36.90625 42.015625 
C 40.90625 42.015625 42.296875 39.015625 42.296875 35.03125 
C 42.296875 29.34375 38.203125 17.96875 36.203125 12.578125 
C 35.296875 10.171875 34.796875 8.875 34.796875 7.078125 
C 34.796875 2.59375 37.90625 -1 42.703125 -1 
C 52 -1 55.5 13.671875 55.5 14.265625 
C 55.5 14.765625 55.09375 15.171875 54.5 15.171875 
C 53.59375 15.171875 53.5 14.875 53 13.171875 
C 50.703125 4.984375 46.90625 1 43 1 
C 42 1 40.40625 1 40.40625 4.203125 
C 40.40625 6.703125 41.5 9.703125 42.09375 11.09375 
C 44.09375 16.609375 48.296875 27.8125 48.296875 33.515625 
C 48.296875 39.5 44.796875 44 37.203125 44 
C 28.296875 44 23.59375 37.734375 21.796875 35.234375 
C 21.5 40.90625 17.40625 44 13 44 
C 9.796875 44 7.59375 42.109375 5.90625 38.71875 
C 4.09375 35.125 2.703125 29.140625 2.703125 28.734375 
C 2.703125 28.34375 3.09375 27.84375 3.796875 27.84375 
C 4.59375 27.84375 4.703125 27.9375 5.296875 30.234375 
C 6.90625 36.328125 8.703125 42.015625 12.703125 42.015625 
C 15 42.015625 15.796875 40.40625 15.796875 37.421875 
C 15.796875 35.21875 14.796875 31.328125 14.09375 28.234375 
L 11.296875 17.46875 
C 10.90625 15.5625 9.796875 11.078125 9.296875 9.28125 
C 8.59375 6.6875 7.5 2 7.5 1.5 
C 7.5 0.09375 8.59375 -1 10.09375 -1 
C 11.296875 -1 12.703125 -0.40625 13.5 1.09375 
C 13.703125 1.59375 14.59375 5.09375 15.09375 7.078125 
L 17.296875 16.0625 
z
" id="CMMI12-110"/>
      <path d="M 5.203125 -13.1875 
C 4.796875 -14.59375 4.703125 -14.6875 4.59375 -14.796875 
C 4 -15 2.90625 -15 2 -15 
C 0.296875 -15 -1.5 -15 -1.5 -17.78125 
C -1.5 -18.875 -0.703125 -19.671875 0.40625 -19.671875 
C 3.296875 -19.671875 6.59375 -19.375 9.59375 -19.375 
C 13.09375 -19.375 16.90625 -19.671875 20.296875 -19.671875 
C 21 -19.671875 22.90625 -19.671875 22.90625 -16.71875 
C 22.90625 -15 21.296875 -15 20.296875 -15 
C 18.90625 -15 17.296875 -15 16 -14.90625 
L 20.296875 2.578125 
C 21.796875 1.1875 25.09375 -1 30.40625 -1 
C 47.796875 -1 58.59375 14.796875 58.59375 28.5 
C 58.59375 40.796875 49.40625 45 41.09375 45 
C 34 45 28.796875 41.09375 27.203125 39.609375 
C 23.40625 45 16.796875 45 15.703125 45 
C 12 45 9.09375 42.90625 7 39.3125 
C 4.5 35.3125 3.203125 29.90625 3.203125 29.40625 
C 3.203125 28.015625 4.703125 28.015625 5.59375 28.015625 
C 6.703125 28.015625 7.09375 28.015625 7.59375 28.515625 
C 7.796875 28.703125 7.796875 28.90625 8.40625 31.40625 
C 10.40625 39.40625 12.703125 41.40625 15.203125 41.40625 
C 16.296875 41.40625 17.5 41.015625 17.5 37.703125 
C 17.5 36.203125 17.296875 34.796875 16.90625 33.40625 
z
M 28.203125 34.90625 
C 31.09375 38.3125 35.796875 41.40625 40.59375 41.40625 
C 46.796875 41.40625 47.296875 36 47.296875 33.796875 
C 47.296875 28.609375 43.90625 16.296875 42.296875 12.390625 
C 39.203125 5.09375 34.296875 2.578125 30.203125 2.578125 
C 24.296875 2.578125 21.90625 7.296875 21.90625 8.390625 
L 22.09375 9.78125 
z
" id="CMMIB10-112"/>
      <path d="M 65.90625 23 
C 67.59375 23 69.40625 23 69.40625 25 
C 69.40625 27 67.59375 27 65.90625 27 
L 11.796875 27 
C 10.09375 27 8.296875 27 8.296875 25 
C 8.296875 23 10.09375 23 11.796875 23 
z
" id="CMSY10-0"/>
      <path d="M 37.703125 23 
L 64.203125 23 
C 65.59375 23 67.296875 23 67.296875 24.6875 
C 67.296875 26.484375 65.703125 26.484375 64.203125 26.484375 
L 37.703125 26.484375 
L 37.703125 52.90625 
C 37.703125 54.296875 37.703125 56 36 56 
C 34.203125 56 34.203125 54.40625 34.203125 52.90625 
L 34.203125 26.484375 
L 7.703125 26.484375 
C 6.296875 26.484375 4.59375 26.484375 4.59375 24.796875 
C 4.59375 23 6.203125 23 7.703125 23 
L 34.203125 23 
L 34.203125 -3.40625 
C 34.203125 -4.796875 34.203125 -6.5 35.90625 -6.5 
C 37.703125 -6.5 37.703125 -4.90625 37.703125 -3.40625 
z
" id="CMR17-43"/>
      <path d="M 47 67.09375 
C 47 67.203125 47.40625 68.5 47.40625 68.609375 
C 47.40625 69.5 46.59375 69.5 46.296875 69.5 
C 45.40625 69.5 45.296875 69 44.90625 67.5 
L 28.40625 1.203125 
C 20.09375 2.203125 17 6.40625 17 12.40625 
C 17 14.59375 17 16.90625 21.703125 29.296875 
C 23 32.890625 23.5 34.1875 23.5 35.984375 
C 23.5 40.484375 20.296875 44.078125 15.59375 44.078125 
C 6.40625 44.078125 2.703125 29.59375 2.703125 28.796875 
C 2.703125 28.390625 3.09375 27.890625 3.796875 27.890625 
C 4.703125 27.890625 4.796875 28.296875 5.203125 29.6875 
C 7.59375 38.328125 11.59375 42 15.296875 42 
C 16.203125 42 17.90625 42 17.90625 38.796875 
C 17.90625 38.390625 17.90625 36.1875 16.203125 31.796875 
C 10.796875 17.59375 10.796875 15.390625 10.796875 13.09375 
C 10.796875 3.484375 18.796875 -0.21875 27.796875 -0.90625 
C 27 -3.953125 26.296875 -7.078125 25.5 -10.109375 
C 23.90625 -15.96875 23.203125 -18.71875 23.203125 -19.109375 
C 23.203125 -20 24 -20 24.296875 -20 
C 24.5 -20 24.90625 -20 25.09375 -19.59375 
C 25.5 -19.21875 29.59375 -2.75 30 -1 
C 33.703125 -1 41.59375 -1 50.59375 8.296875 
C 53.90625 11.890625 56.90625 16.5 58.59375 20.796875 
C 59.59375 23.40625 62 32.296875 62 37.390625 
C 62 43.390625 59 44.078125 58 44.078125 
C 55.59375 44.078125 53.40625 41.6875 53.40625 39.6875 
C 53.40625 38.484375 54.09375 37.78125 54.5 37.390625 
C 55.40625 36.484375 58.09375 33.78125 58.09375 28.59375 
C 58.09375 25 56.09375 17.59375 49.703125 10.40625 
C 41.296875 1 33.59375 1 30.59375 1 
z
" id="CMMI12-32"/>
      <path d="M 60.203125 61.421875 
C 60.59375 62.921875 60.703125 63.015625 61.40625 63.109375 
C 62.59375 63.3125 64 63.3125 65.203125 63.3125 
C 67.796875 63.3125 69.40625 63.3125 69.40625 66.203125 
C 69.40625 66.40625 69.296875 68 67.296875 68 
C 65.296875 68 63.09375 68 61 68 
C 58.796875 68 56.40625 68 54.09375 68 
C 50.203125 68 40.59375 68 36.703125 68 
C 35.5 68 33.703125 68 33.703125 65.109375 
C 33.703125 63.3125 35.296875 63.3125 37.09375 63.3125 
L 40.59375 63.3125 
C 44.5 63.3125 44.703125 63.3125 47.09375 63.015625 
L 35 14.71875 
C 32.5 4.5625 26.203125 1.578125 21.59375 1.578125 
C 20.703125 1.578125 16.40625 1.578125 13.40625 3.96875 
C 18.796875 5.265625 20.59375 9.9375 20.59375 12.625 
C 20.59375 15.921875 17.90625 18.296875 14.5 18.296875 
C 10.5 18.296875 5.59375 15.125 5.59375 8.84375 
C 5.59375 1.984375 12.5 -2 22.09375 -2 
C 33.296875 -2 45.40625 2.578125 48.296875 14.21875 
z
" id="CMMIB10-74"/>
      <path d="M 16.59375 38.921875 
C 16.59375 41.40625 14.59375 43 12.5 43 
C 10.5 43 8.40625 41.40625 8.40625 38.921875 
C 8.40625 36.4375 10.40625 34.84375 12.5 34.84375 
C 14.5 34.84375 16.59375 36.4375 16.59375 38.921875 
z
M 15.296875 -1.109375 
C 15.296875 -7.546875 13.296875 -12.765625 9.90625 -17.59375 
C 9.296875 -18.28125 9.296875 -18.484375 9.296875 -18.59375 
C 9.296875 -19.09375 9.703125 -19.5 10.09375 -19.5 
C 10.59375 -19.5 16.90625 -12.578125 16.90625 -0.953125 
C 16.90625 2.953125 16.59375 8.15625 12.5 8.15625 
C 10.296875 8.15625 8.40625 6.671875 8.40625 4.078125 
C 8.40625 1.5 10.296875 0 12.5 0 
C 13.5 0 14.59375 0.296875 15.296875 1 
z
" id="CMR17-59"/>
      <path d="M 25.296875 47.5 
C 25.796875 48.703125 26.203125 49.59375 26.203125 50.59375 
C 26.203125 53.5 23.59375 55.90625 20.5 55.90625 
C 17.703125 55.90625 15.90625 54 15.203125 51.40625 
L 3.296875 7.703125 
C 3.296875 7.5 2.90625 6.40625 2.90625 6.296875 
C 2.90625 5.203125 5.5 4.5 6.296875 4.5 
C 6.90625 4.5 7 4.796875 7.59375 6.09375 
z
" id="CMSY10-48"/>
     </defs>
     <g style="fill:#262626;" transform="translate(140.322713 283.236454)scale(0.12 -0.12)">
      <use transform="scale(0.996264)" xlink:href="#CMMI12-27"/>
      <use transform="translate(59.020054 0)scale(0.996264)" xlink:href="#CMR17-40"/>
      <use transform="translate(94.300821 0)scale(0.996264)" xlink:href="#CMMI12-28"/>
      <use transform="translate(147.791987 0)scale(0.996264)" xlink:href="#CMR17-41"/>
      <use transform="translate(210.746763 0)scale(0.996264)" xlink:href="#CMR17-61"/>
      <use transform="translate(315.881393 39.226102)scale(0.697382)" xlink:href="#CMR17-49"/>
      <use transform="translate(311.331074 -34.355253)scale(0.697382)" xlink:href="#CMMI12-22"/>
      <use transform="translate(370.214798 37.300279)scale(0.247871)" xlink:href="#CMEX10-80"/>
      <use transform="translate(396.378996 47.87587)scale(0.697382)" xlink:href="#CMMI12-22"/>
      <use transform="translate(396.378996 -14.604063)scale(0.697382)" xlink:href="#CMR17-48"/>
      <use transform="translate(454.565338 0)scale(0.996264)" xlink:href="#CMMI12-108"/>
      <use transform="translate(485.813742 0)scale(0.996264)" xlink:href="#CMMI12-110"/>
      <use transform="translate(544.04379 0)scale(0.996264)" xlink:href="#CMR17-40"/>
      <use transform="translate(579.324557 0)scale(0.996264)" xlink:href="#CMMIB10-112"/>
      <use transform="translate(639.192399 -14.943915)scale(0.697382)" xlink:href="#CMMI12-22"/>
      <use transform="translate(680.774336 0)scale(0.996264)" xlink:href="#CMR17-40"/>
      <use transform="translate(716.055104 0)scale(0.996264)" xlink:href="#CMR17-48"/>
      <use transform="translate(761.745581 0)scale(0.996264)" xlink:href="#CMR17-41"/>
      <use transform="translate(797.026349 0)scale(0.996264)" xlink:href="#CMR17-41"/>
      <use transform="translate(854.446324 0)scale(0.996264)" xlink:href="#CMSY10-0"/>
      <use transform="translate(954.072998 0)scale(0.996264)" xlink:href="#CMMI12-108"/>
      <use transform="translate(985.321402 0)scale(0.996264)" xlink:href="#CMMI12-110"/>
      <use transform="translate(1043.55145 0)scale(0.996264)" xlink:href="#CMR17-40"/>
      <use transform="translate(1078.832217 0)scale(0.996264)" xlink:href="#CMMIB10-112"/>
      <use transform="translate(1138.700059 -14.943915)scale(0.697382)" xlink:href="#CMMI12-22"/>
      <use transform="translate(1180.281996 0)scale(0.996264)" xlink:href="#CMR17-40"/>
      <use transform="translate(1215.562764 0)scale(0.996264)" xlink:href="#CMMI12-28"/>
      <use transform="translate(1269.053929 0)scale(0.996264)" xlink:href="#CMR17-41"/>
      <use transform="translate(1304.334697 0)scale(0.996264)" xlink:href="#CMR17-41"/>
      <use transform="translate(1361.754672 0)scale(0.996264)" xlink:href="#CMR17-43"/>
      <use transform="translate(1455.608667 0)scale(0.996264)" xlink:href="#CMMI12-32"/>
      <use transform="translate(1519.027554 -14.943915)scale(0.697382)" xlink:href="#CMMI12-22"/>
      <use transform="translate(1560.609491 0)scale(0.996264)" xlink:href="#CMR17-40"/>
      <use transform="translate(1595.890259 0)scale(0.996264)" xlink:href="#CMMIB10-74"/>
      <use transform="translate(1668.811111 0)scale(0.996264)" xlink:href="#CMR17-59"/>
      <use transform="translate(1710.286575 0)scale(0.996264)" xlink:href="#CMMI12-84"/>
      <use transform="translate(1767.461619 -14.943915)scale(0.697382)" xlink:href="#CMMI12-112"/>
      <use transform="translate(1802.231257 0)scale(0.996264)" xlink:href="#CMR17-41"/>
      <use transform="translate(1859.651232 0)scale(0.996264)" xlink:href="#CMSY10-0"/>
      <use transform="translate(1959.277906 0)scale(0.996264)" xlink:href="#CMMI12-32"/>
      <use transform="translate(2022.696793 -14.943915)scale(0.697382)" xlink:href="#CMMI12-22"/>
      <use transform="translate(2064.27873 0)scale(0.996264)" xlink:href="#CMR17-40"/>
      <use transform="translate(2099.559498 0)scale(0.996264)" xlink:href="#CMMIB10-74"/>
      <use transform="translate(2172.48035 36.153639)scale(0.697382)" xlink:href="#CMSY10-48"/>
      <use transform="translate(2192.156443 0)scale(0.996264)" xlink:href="#CMR17-59"/>
      <use transform="translate(2233.631906 0)scale(0.996264)" xlink:href="#CMMI12-84"/>
      <use transform="translate(2290.80695 -14.943915)scale(0.697382)" xlink:href="#CMMI12-112"/>
      <use transform="translate(2325.576588 0)scale(0.996264)" xlink:href="#CMR17-41"/>
      <path d="M 311.331074 24.410885 
L 352.414879 24.410885 
L 352.414879 25.40233 
L 311.331074 25.40233 
L 311.331074 24.410885 
z
"/>
     </g>
    </g>
    <g id="line2d_19">
     <path d="M 106.722713 299.675208 
L 130.722713 299.675208 
" style="fill:none;stroke:#ffa500;stroke-linecap:round;stroke-width:1.4;"/>
    </g>
    <g id="line2d_20"/>
    <g id="text_19">
     <!-- $\sigma(\tau)=D(\bm{p}(0)||\bm{p}^{eq})-D(\bm{p}(\tau)||\bm{p}^{eq})$ -->
     <defs>
      <path d="M 15.703125 7.375 
C 14.796875 3.890625 14.59375 2.890625 7.59375 2.890625 
C 5.703125 2.890625 4.703125 2.890625 4.703125 1.09375 
C 4.703125 0 5.296875 0 7.296875 0 
L 39 0 
C 59.203125 0 78.90625 20.8125 78.90625 43.015625 
C 78.90625 57.359375 70.296875 68 56 68 
L 23.90625 68 
C 22 68 21.09375 68 21.09375 66.109375 
C 21.09375 65.109375 22 65.109375 23.5 65.109375 
C 29.59375 65.109375 29.59375 64.3125 29.59375 63.21875 
C 29.59375 63.03125 29.59375 62.421875 29.203125 60.921875 
z
M 36.796875 61.421875 
C 37.703125 65.109375 38.09375 65.109375 42 65.109375 
L 53 65.109375 
C 62.40625 65.109375 71 60.03125 71 46.296875 
C 71 41.3125 69 24 59.296875 13.046875 
C 56.5 9.765625 48.90625 2.890625 37.40625 2.890625 
L 26 2.890625 
C 24.59375 2.890625 24.40625 2.890625 23.796875 3 
C 22.703125 3.09375 22.59375 3.296875 22.59375 4.09375 
C 22.59375 4.796875 22.796875 5.390625 23 6.28125 
z
" id="CMMI12-68"/>
      <path d="M 17.90625 23.109375 
C 20.59375 23.109375 27.40625 23.109375 32.203125 24.921875 
C 39.796875 27.859375 40.5 33.71875 40.5 35.53125 
C 40.5 39.96875 36.703125 44 30.09375 44 
C 19.59375 44 4.5 34.53125 4.5 16.765625 
C 4.5 6.28125 10.5 -1 19.59375 -1 
C 33.203125 -1 41.796875 9.515625 41.796875 10.8125 
C 41.796875 11.40625 41.203125 11.90625 40.796875 11.90625 
C 40.5 11.90625 40.40625 11.8125 39.5 10.921875 
C 33.09375 2.484375 23.59375 1 19.796875 1 
C 14.09375 1 11.09375 5.46875 11.09375 12.84375 
C 11.09375 14.234375 11.09375 16.734375 12.59375 23.109375 
z
M 13.09375 25 
C 17.40625 40.5 26.90625 42.015625 30.09375 42.015625 
C 34.5 42.015625 37.5 39.40625 37.5 35.578125 
C 37.5 25 21.5 25 17.296875 25 
z
" id="CMMI12-101"/>
      <path d="M 44.09375 43.109375 
C 44.09375 43.59375 43.703125 44 43.203125 44 
C 42.40625 44 38.5 40.390625 36.59375 36.90625 
C 34.796875 41.34375 31.703125 44 27.40625 44 
C 16.09375 44 3.90625 29.4375 3.90625 14.671875 
C 3.90625 4.796875 9.703125 -1 16.5 -1 
C 21.796875 -1 26.203125 3.015625 28.296875 5.296875 
L 28.40625 5.203125 
L 24.59375 -9.609375 
L 23.703125 -13.15625 
C 22.796875 -16.109375 21.296875 -16.109375 16.59375 -16.109375 
C 15.5 -16.109375 14.5 -16.109375 14.5 -18 
C 14.5 -18.703125 15.09375 -19 15.796875 -19 
C 17.203125 -19 19 -19 20.40625 -19 
L 30.59375 -19 
C 32.09375 -19 33.796875 -19 35.296875 -19 
C 35.90625 -19 37.09375 -19 37.09375 -17.109375 
C 37.09375 -16.109375 36.296875 -16.109375 34.796875 -16.109375 
C 30.09375 -16.109375 29.796875 -15.40625 29.796875 -14.609375 
C 29.796875 -14.125 29.90625 -14.03125 30.203125 -12.734375 
z
M 30 11.90625 
C 29.5 10.1875 29.5 10 28.09375 8.09375 
C 25.90625 5.296875 21.5 1 16.796875 1 
C 12.703125 1 10.40625 4.703125 10.40625 10.59375 
C 10.40625 16.09375 13.5 27.296875 15.40625 31.5 
C 18.796875 38.5 23.5 42.109375 27.40625 42.109375 
C 34 42.109375 35.296875 33.90625 35.296875 33.109375 
C 35.296875 33.015625 35 31.6875 34.90625 31.5 
z
" id="CMMI12-113"/>
     </defs>
     <g style="fill:#262626;" transform="translate(140.322713 303.875208)scale(0.12 -0.12)">
      <use transform="scale(0.996264)" xlink:href="#CMMI12-27"/>
      <use transform="translate(59.020054 0)scale(0.996264)" xlink:href="#CMR17-40"/>
      <use transform="translate(94.300821 0)scale(0.996264)" xlink:href="#CMMI12-28"/>
      <use transform="translate(147.791987 0)scale(0.996264)" xlink:href="#CMR17-41"/>
      <use transform="translate(210.746763 0)scale(0.996264)" xlink:href="#CMR17-61"/>
      <use transform="translate(310.13556 0)scale(0.996264)" xlink:href="#CMMI12-68"/>
      <use transform="translate(393.839508 0)scale(0.996264)" xlink:href="#CMR17-40"/>
      <use transform="translate(429.120276 0)scale(0.996264)" xlink:href="#CMMIB10-112"/>
      <use transform="translate(488.988118 0)scale(0.996264)" xlink:href="#CMR17-40"/>
      <use transform="translate(524.268885 0)scale(0.996264)" xlink:href="#CMR17-48"/>
      <use transform="translate(569.959363 0)scale(0.996264)" xlink:href="#CMR17-41"/>
      <use transform="translate(605.24013 0)scale(0.996264)" xlink:href="#CMSY10-106"/>
      <use transform="translate(632.914215 0)scale(0.996264)" xlink:href="#CMSY10-106"/>
      <use transform="translate(660.5883 0)scale(0.996264)" xlink:href="#CMMIB10-112"/>
      <use transform="translate(720.456142 36.153639)scale(0.697382)" xlink:href="#CMMI12-101"/>
      <use transform="translate(752.104398 36.153639)scale(0.697382)" xlink:href="#CMMI12-113"/>
      <use transform="translate(785.380796 0)scale(0.996264)" xlink:href="#CMR17-41"/>
      <use transform="translate(842.80077 0)scale(0.996264)" xlink:href="#CMSY10-0"/>
      <use transform="translate(942.427445 0)scale(0.996264)" xlink:href="#CMMI12-68"/>
      <use transform="translate(1026.131393 0)scale(0.996264)" xlink:href="#CMR17-40"/>
      <use transform="translate(1061.41216 0)scale(0.996264)" xlink:href="#CMMIB10-112"/>
      <use transform="translate(1121.280002 0)scale(0.996264)" xlink:href="#CMR17-40"/>
      <use transform="translate(1156.56077 0)scale(0.996264)" xlink:href="#CMMI12-28"/>
      <use transform="translate(1210.051935 0)scale(0.996264)" xlink:href="#CMR17-41"/>
      <use transform="translate(1245.332703 0)scale(0.996264)" xlink:href="#CMSY10-106"/>
      <use transform="translate(1273.006788 0)scale(0.996264)" xlink:href="#CMSY10-106"/>
      <use transform="translate(1300.680873 0)scale(0.996264)" xlink:href="#CMMIB10-112"/>
      <use transform="translate(1360.548714 36.153639)scale(0.697382)" xlink:href="#CMMI12-101"/>
      <use transform="translate(1392.196971 36.153639)scale(0.697382)" xlink:href="#CMMI12-113"/>
      <use transform="translate(1425.473368 0)scale(0.996264)" xlink:href="#CMR17-41"/>
     </g>
    </g>
   </g>
  </g>
  <g id="text_20">
   <!-- $\textit{target bits}: \boxed{\boxed{{S_{0}}} \quad  \boxed{S_{1}} \quad \boxed{S_{2}} \quad \boxed{S_{3}}\quad \boxed{S_{4}}}$ -->
   <defs>
    <path d="M 24.59375 37 
L 37.59375 37 
L 38.796875 42.765625 
L 25.796875 42.765625 
L 28.5 55 
L 21.40625 55 
L 18.703125 42.765625 
L 10.796875 42.765625 
L 9.59375 37 
L 17.296875 37 
C 16.59375 33.59375 12.703125 15.5 12.40625 13.890625 
C 11.5 9.5 11.296875 8.609375 11.296875 6.390625 
C 11.296875 0.09375 14.296875 -1 17.203125 -1 
C 24.203125 -1 30 1.78125 31.90625 2.6875 
L 31.59375 8.5625 
C 28.296875 6.171875 25 5.265625 22.5 5.265625 
C 20.203125 5.265625 19.09375 6.671875 19.09375 9.6875 
C 19.09375 10.78125 19.203125 11.375 19.40625 12.171875 
z
" id="CMSSI17-116"/>
    <path d="M 43.59375 28.1875 
C 44 30.1875 44.09375 30.59375 44.09375 31.78125 
C 44.09375 37.375 40.5 43.875 31.296875 43.875 
C 27.203125 43.875 22.09375 43.171875 15.703125 39.890625 
L 15 33.40625 
C 19.796875 36.203125 24.296875 38 30 38 
C 35.59375 38 36.40625 33.171875 36.40625 30.953125 
C 36.40625 29.75 35.703125 26.328125 35.203125 24 
C 26 24 6.09375 21.890625 6.09375 8.3125 
C 6.09375 7.5 6.09375 -1 14.703125 -1 
C 16.59375 -1 24.59375 -1 31 3.390625 
L 30.203125 -0.296875 
L 37.59375 -0.296875 
z
M 34.09375 18.625 
C 33.796875 17.171875 32.703125 11.65625 32.40625 10.78125 
C 30.703125 6.421875 24.59375 4.984375 20.796875 4.984375 
C 17.796875 4.984375 13.703125 6.21875 13.703125 10.453125 
C 13.703125 18.625 30.90625 18.625 34.09375 18.625 
z
" id="CMSSI17-97"/>
    <path d="M 18.59375 17.5 
C 20.09375 24.203125 20.703125 27.40625 25.296875 31.796875 
C 27 33.40625 31.5 37 38.5 37 
L 39.90625 43.578125 
C 30.5 43.578125 25 38.015625 22.09375 35.203125 
L 23.796875 43.171875 
L 16.703125 43.171875 
L 7.5 0 
L 14.90625 0 
z
" id="CMSSI17-114"/>
    <path d="M 41.09375 37.703125 
C 41.203125 37.703125 41.40625 37.703125 41.5 37.703125 
C 43.203125 37.703125 45.59375 38 47.40625 38 
C 50.5 38 51 37.890625 53.59375 37.609375 
L 53.796875 43.671875 
C 46.59375 43.671875 41.40625 41.875 38.5 40.6875 
C 35.296875 43.671875 31.703125 43.671875 30.09375 43.671875 
C 20.40625 43.671875 11.203125 34.546875 11.203125 25.125 
C 11.203125 24.546875 11.296875 21.515625 12.796875 18.953125 
C 10.09375 16.171875 7.90625 12.171875 7.90625 8.1875 
C 7.90625 5.6875 8.703125 3.984375 9.09375 3.390625 
C 4.203125 0.6875 0.90625 -4.296875 0.90625 -8.5 
C 0.90625 -14.90625 8.296875 -20 19.09375 -20 
C 29.203125 -20 43.09375 -15 43.09375 -3.625 
C 43.09375 3.0625 38.796875 7.265625 26.203125 7.265625 
L 18.203125 7.265625 
C 16.40625 7.265625 13.59375 7.265625 13.59375 11.078125 
C 13.59375 13.375 14.90625 15.1875 15.40625 15.78125 
C 17 14.484375 19.796875 13 23.59375 13 
C 33 13 42.40625 21.859375 42.40625 31.59375 
C 42.40625 33.765625 42 36.015625 41 37.703125 
z
M 24.703125 18.46875 
C 21.296875 18.46875 18.296875 20.421875 18.296875 25.140625 
C 18.296875 30.640625 21.703125 38.296875 29 38.296875 
C 32.296875 38.296875 35.40625 36.4375 35.40625 31.625 
C 35.40625 26.515625 32.203125 18.46875 24.703125 18.46875 
z
M 24.59375 0 
C 31.203125 0 35.796875 -1.40625 35.796875 -5.71875 
C 35.796875 -10.71875 28.203125 -14.515625 20.296875 -14.515625 
C 13.5 -14.515625 8.09375 -11.8125 8.09375 -7.71875 
C 8.09375 -6.8125 9.09375 0 16.59375 0 
z
" id="CMSSI17-103"/>
    <path d="M 43.796875 21.515625 
C 44.40625 24.140625 44.703125 26.859375 44.703125 29.578125 
C 44.703125 41.484375 37.09375 44 31.59375 44 
C 19.203125 44 7.09375 30.390625 7.09375 16.40625 
C 7.09375 5.5 14.40625 -1 23.40625 -1 
C 27.5 -1 33.09375 0 39.5 3.875 
L 40.203125 10.234375 
C 33.5 5.5625 27.296875 5.078125 24.90625 5.078125 
C 18.203125 5.078125 14.296875 10.3125 14.296875 17.25 
C 14.296875 21.515625 14.59375 21.515625 16.59375 21.515625 
z
M 16.703125 27 
C 19.90625 33.734375 25.5 37.921875 30.203125 37.921875 
C 38.40625 37.921875 38.40625 29.4375 38.40625 27 
z
" id="CMSSI17-101"/>
    <path d="M 29.703125 69 
L 22.296875 69 
L 7.5 -0.203125 
L 15.09375 -0.203125 
L 16 4.28125 
C 18.90625 0.796875 23.09375 -1 27.5 -1 
C 38.703125 -1 50.40625 12.34375 50.40625 27.953125 
C 50.40625 34.875 47.40625 43.0625 39.40625 43.0625 
C 36.296875 43.0625 30 42.375 23.09375 37.796875 
z
M 22 31.96875 
C 25.703125 35.71875 29.59375 37 32.796875 37 
C 38 37 42.59375 33.734375 42.59375 26.25 
C 42.59375 15.71875 35.59375 5.078125 25 5.078125 
C 18.90625 5.078125 17.5 10.390625 17.5 10.890625 
C 17.5 11.375 17.59375 11.78125 17.703125 12.15625 
z
" id="CMSSI17-98"/>
    <path d="M 29.203125 65.359375 
L 20.796875 65.359375 
L 19.09375 57 
L 27.5 57 
z
M 7.40625 0 
L 14.796875 0 
L 23.90625 42.6875 
L 16.5 42.6875 
z
" id="CMSSI17-105"/>
    <path d="M 40.90625 40.984375 
C 37.09375 42.96875 33.40625 43.96875 28.09375 43.96875 
C 12 43.96875 9.59375 32.46875 9.59375 29.078125 
C 9.59375 20.96875 17.703125 19.265625 20.796875 18.578125 
C 26 17.46875 29.40625 16.765625 29.40625 12.671875 
C 29.40625 10.78125 28 5.265625 19.5 5.265625 
C 16.203125 5.265625 10.703125 5.96875 6 9.96875 
L 3.40625 3.28125 
C 6.703125 0.984375 11.90625 -1 18.203125 -1 
C 33.40625 -1 36.703125 10.296875 36.703125 14.796875 
C 36.703125 23.390625 28.5 25.09375 24.59375 25.90625 
C 20.203125 26.796875 16.90625 27.5 16.90625 31.1875 
C 16.90625 31.484375 16.90625 38 25.90625 38 
C 30.09375 38 34 37.203125 38.40625 34.59375 
z
" id="CMSSI17-115"/>
    <path d="M 16.59375 38.921875 
C 16.59375 41.40625 14.59375 43 12.5 43 
C 10.5 43 8.40625 41.40625 8.40625 38.921875 
C 8.40625 36.4375 10.40625 34.84375 12.5 34.84375 
C 14.5 34.84375 16.59375 36.4375 16.59375 38.921875 
z
M 16.59375 4.078125 
C 16.59375 6.5625 14.59375 8.15625 12.5 8.15625 
C 10.5 8.15625 8.40625 6.5625 8.40625 4.078125 
C 8.40625 1.59375 10.40625 0 12.5 0 
C 14.5 0 16.59375 1.59375 16.59375 4.078125 
z
" id="CMR17-58"/>
    <path d="M 63.5 69.109375 
C 63.5 70 62.796875 70 62.59375 70 
C 62.203125 70 62.09375 69.90625 60.90625 68.40625 
C 60.296875 67.703125 56.203125 62.515625 56.09375 62.421875 
C 52.796875 68.90625 46.203125 70 42 70 
C 29.296875 70 17.796875 58.484375 17.796875 47.265625 
C 17.796875 39.828125 22.296875 35.453125 27.203125 33.765625 
C 28.296875 33.359375 34.203125 31.765625 37.203125 31.078125 
C 42.296875 29.6875 43.59375 29.296875 45.703125 27.109375 
C 46.09375 26.609375 48.09375 24.328125 48.09375 19.65625 
C 48.09375 10.421875 39.5 0.890625 29.5 0.890625 
C 21.296875 0.890625 12.203125 4.375 12.203125 15.484375 
C 12.203125 17.375 12.59375 19.765625 12.90625 20.75 
C 12.90625 21.0625 13 21.53125 13 21.734375 
C 13 22.140625 12.796875 22.640625 12 22.640625 
C 11.09375 22.640625 11 22.4375 10.59375 20.75 
L 5.5 0.375 
C 5.5 0.28125 5.09375 -1 5.09375 -1.109375 
C 5.09375 -2 5.90625 -2 6.09375 -2 
C 6.5 -2 6.59375 -1.90625 7.796875 -0.40625 
L 12.40625 5.5625 
C 14.796875 1.96875 20 -2 29.296875 -2 
C 42.203125 -2 54 10.40625 54 22.8125 
C 54 27 53 30.671875 49.203125 34.328125 
C 47.09375 36.421875 45.296875 36.921875 36.09375 39.3125 
C 29.40625 41.09375 28.5 41.390625 26.703125 42.984375 
C 25 44.65625 23.703125 47.046875 23.703125 50.421875 
C 23.703125 58.765625 32.203125 67.3125 41.703125 67.3125 
C 51.5 67.3125 56.09375 61.34375 56.09375 51.921875 
C 56.09375 49.34375 55.59375 46.65625 55.59375 46.265625 
C 55.59375 45.359375 56.40625 45.359375 56.703125 45.359375 
C 57.59375 45.359375 57.703125 45.65625 58.09375 47.25 
z
" id="CMMI12-83"/>
   </defs>
   <g style="fill:#262626;" transform="translate(146.218128 22.143945)scale(0.12 -0.12)">
    <use transform="scale(0.996264)" xlink:href="#CMSSI17-116"/>
    <use transform="translate(33.831567 0)scale(0.996264)" xlink:href="#CMSSI17-97"/>
    <use transform="translate(76.151033 0)scale(0.996264)" xlink:href="#CMSSI17-114"/>
    <use transform="translate(108.060806 0)scale(0.996264)" xlink:href="#CMSSI17-103"/>
    <use transform="translate(154.904429 0)scale(0.996264)" xlink:href="#CMSSI17-101"/>
    <use transform="translate(196.543252 0)scale(0.996264)" xlink:href="#CMSSI17-116"/>
    <use transform="translate(261.603931 0)scale(0.996264)" xlink:href="#CMSSI17-98"/>
    <use transform="translate(309.808874 0)scale(0.996264)" xlink:href="#CMSSI17-105"/>
    <use transform="translate(331.989597 0)scale(0.996264)" xlink:href="#CMSSI17-116"/>
    <use transform="translate(365.821164 0)scale(0.996264)" xlink:href="#CMSSI17-115"/>
    <use transform="translate(429.408715 0)scale(0.996264)" xlink:href="#CMR17-58"/>
    <use transform="translate(488.728365 0)scale(0.996264)" xlink:href="#CMMI12-83"/>
    <use transform="translate(548.722853 -14.943915)scale(0.697382)" xlink:href="#CMR17-48"/>
    <use transform="translate(681.666088 0)scale(0.996264)" xlink:href="#CMMI12-83"/>
    <use transform="translate(741.660576 -14.943915)scale(0.697382)" xlink:href="#CMR17-49"/>
    <use transform="translate(874.603811 0)scale(0.996264)" xlink:href="#CMMI12-83"/>
    <use transform="translate(934.598299 -14.943915)scale(0.697382)" xlink:href="#CMR17-50"/>
    <use transform="translate(1067.541534 0)scale(0.996264)" xlink:href="#CMMI12-83"/>
    <use transform="translate(1127.536022 -14.943915)scale(0.697382)" xlink:href="#CMR17-51"/>
    <use transform="translate(1260.479257 0)scale(0.996264)" xlink:href="#CMMI12-83"/>
    <use transform="translate(1320.473745 -14.943915)scale(0.697382)" xlink:href="#CMR17-52"/>
    <path d="M 481.953782 74.454119 
L 1359.729642 74.454119 
L 1359.729642 74.852619 
L 481.953782 74.852619 
L 481.953782 74.454119 
z
"/>
    <path d="M 481.953782 -21.319998 
L 482.352281 -21.319998 
L 482.352281 74.454119 
L 481.953782 74.454119 
L 481.953782 -21.319998 
z
"/>
    <path d="M 485.341073 71.066828 
L 584.591458 71.066828 
L 584.591458 71.465327 
L 485.341073 71.465327 
L 485.341073 71.066828 
z
"/>
    <path d="M 485.341073 -17.932707 
L 485.739573 -17.932707 
L 485.739573 71.066828 
L 485.341073 71.066828 
L 485.341073 -17.932707 
z
"/>
    <path d="M 584.192959 -17.932707 
L 584.591458 -17.932707 
L 584.591458 71.066828 
L 584.192959 71.066828 
L 584.192959 -17.932707 
z
"/>
    <path d="M 485.341073 -18.331206 
L 584.591458 -18.331206 
L 584.591458 -17.932707 
L 485.341073 -17.932707 
L 485.341073 -18.331206 
z
"/>
    <path d="M 678.278796 71.066828 
L 777.529181 71.066828 
L 777.529181 71.465327 
L 678.278796 71.465327 
L 678.278796 71.066828 
z
"/>
    <path d="M 678.278796 -17.932707 
L 678.677296 -17.932707 
L 678.677296 71.066828 
L 678.278796 71.066828 
L 678.278796 -17.932707 
z
"/>
    <path d="M 777.130682 -17.932707 
L 777.529181 -17.932707 
L 777.529181 71.066828 
L 777.130682 71.066828 
L 777.130682 -17.932707 
z
"/>
    <path d="M 678.278796 -18.331206 
L 777.529181 -18.331206 
L 777.529181 -17.932707 
L 678.278796 -17.932707 
L 678.278796 -18.331206 
z
"/>
    <path d="M 871.21652 71.066828 
L 970.466905 71.066828 
L 970.466905 71.465327 
L 871.21652 71.465327 
L 871.21652 71.066828 
z
"/>
    <path d="M 871.21652 -17.932707 
L 871.615019 -17.932707 
L 871.615019 71.066828 
L 871.21652 71.066828 
L 871.21652 -17.932707 
z
"/>
    <path d="M 970.068405 -17.932707 
L 970.466905 -17.932707 
L 970.466905 71.066828 
L 970.068405 71.066828 
L 970.068405 -17.932707 
z
"/>
    <path d="M 871.21652 -18.331206 
L 970.466905 -18.331206 
L 970.466905 -17.932707 
L 871.21652 -17.932707 
L 871.21652 -18.331206 
z
"/>
    <path d="M 1064.154243 71.066828 
L 1163.404628 71.066828 
L 1163.404628 71.465327 
L 1064.154243 71.465327 
L 1064.154243 71.066828 
z
"/>
    <path d="M 1064.154243 -17.932707 
L 1064.552742 -17.932707 
L 1064.552742 71.066828 
L 1064.154243 71.066828 
L 1064.154243 -17.932707 
z
"/>
    <path d="M 1163.006128 -17.932707 
L 1163.404628 -17.932707 
L 1163.404628 71.066828 
L 1163.006128 71.066828 
L 1163.006128 -17.932707 
z
"/>
    <path d="M 1064.154243 -18.331206 
L 1163.404628 -18.331206 
L 1163.404628 -17.932707 
L 1064.154243 -17.932707 
L 1064.154243 -18.331206 
z
"/>
    <path d="M 1257.091966 71.066828 
L 1356.342351 71.066828 
L 1356.342351 71.465327 
L 1257.091966 71.465327 
L 1257.091966 71.066828 
z
"/>
    <path d="M 1257.091966 -17.932707 
L 1257.490465 -17.932707 
L 1257.490465 71.066828 
L 1257.091966 71.066828 
L 1257.091966 -17.932707 
z
"/>
    <path d="M 1355.943851 -17.932707 
L 1356.342351 -17.932707 
L 1356.342351 71.066828 
L 1355.943851 71.066828 
L 1355.943851 -17.932707 
z
"/>
    <path d="M 1257.091966 -18.331206 
L 1356.342351 -18.331206 
L 1356.342351 -17.932707 
L 1257.091966 -17.932707 
L 1257.091966 -18.331206 
z
"/>
    <path d="M 1359.331143 -21.319998 
L 1359.729642 -21.319998 
L 1359.729642 74.454119 
L 1359.331143 74.454119 
L 1359.331143 -21.319998 
z
"/>
    <path d="M 481.953782 -21.718498 
L 1359.729642 -21.718498 
L 1359.729642 -21.319998 
L 481.953782 -21.319998 
L 481.953782 -21.718498 
z
"/>
   </g>
  </g>
 </g>
 <defs>
  <clipPath id="p50bf832bb1">
   <rect height="256.608" width="400.896" x="56.264602" y="61.056"/>
  </clipPath>
 </defs>
</svg>
