<?xml version="1.0" encoding="utf-8" standalone="no"?>
<!DOCTYPE svg PUBLIC "-//W3C//DTD SVG 1.1//EN"
  "http://www.w3.org/Graphics/SVG/1.1/DTD/svg11.dtd">
<!-- Created with matplotlib (https://matplotlib.org/) -->
<svg height="396pt" version="1.1" viewBox="0 0 576 396" width="576pt" xmlns="http://www.w3.org/2000/svg" xmlns:xlink="http://www.w3.org/1999/xlink">
 <defs>
  <style type="text/css">
*{stroke-linecap:butt;stroke-linejoin:round;}
  </style>
 </defs>
 <g id="figure_1">
  <g id="patch_1">
   <path d="M 0 396 
L 576 396 
L 576 0 
L 0 0 
z
" style="fill:none;"/>
  </g>
  <g id="axes_1">
   <g id="patch_2">
    <path d="M 72 346.5 
L 518.4 346.5 
L 518.4 47.52 
L 72 47.52 
z
" style="fill:none;"/>
   </g>
   <g id="matplotlib.axis_1">
    <g id="xtick_1">
     <g id="line2d_1">
      <path clip-path="url(#p710c9ab25a)" d="M 92.290503 346.5 
L 92.290503 47.52 
" style="fill:none;stroke:#ffffff;stroke-linecap:round;"/>
     </g>
     <g id="line2d_2"/>
     <g id="text_1">
      <!-- $\mathdefault{0}$ -->
      <defs>
       <path d="M 42 31.640625 
C 42 37.75 41.90625 48.125 37.703125 56.109375 
C 34 63.109375 28.09375 65.59375 22.90625 65.59375 
C 18.09375 65.59375 12 63.40625 8.203125 56.203125 
C 4.203125 48.71875 3.796875 39.4375 3.796875 31.640625 
C 3.796875 25.953125 3.90625 17.28125 7 9.671875 
C 11.296875 -0.609375 19 -2 22.90625 -2 
C 27.5 -2 34.5 -0.109375 38.59375 9.375 
C 41.59375 16.28125 42 24.359375 42 31.640625 
z
M 22.90625 -0.40625 
C 16.5 -0.40625 12.703125 5.078125 11.296875 12.6875 
C 10.203125 18.5625 10.203125 27.15625 10.203125 32.75 
C 10.203125 40.4375 10.203125 46.828125 11.5 52.921875 
C 13.40625 61.390625 19 64 22.90625 64 
C 27 64 32.296875 61.296875 34.203125 53.125 
C 35.5 47.4375 35.59375 40.734375 35.59375 32.75 
C 35.59375 26.25 35.59375 18.265625 34.40625 12.375 
C 32.296875 1.484375 26.40625 -0.40625 22.90625 -0.40625 
z
" id="CMR17-48"/>
      </defs>
      <g style="fill:#262626;" transform="translate(89.799836 360.418498)scale(0.1 -0.1)">
       <use transform="scale(0.996264)" xlink:href="#CMR17-48"/>
      </g>
     </g>
    </g>
    <g id="xtick_2">
     <g id="line2d_3">
      <path clip-path="url(#p710c9ab25a)" d="M 173.454221 346.5 
L 173.454221 47.52 
" style="fill:none;stroke:#ffffff;stroke-linecap:round;"/>
     </g>
     <g id="line2d_4"/>
     <g id="text_2">
      <!-- $\mathdefault{2}$ -->
      <defs>
       <path d="M 41.703125 15.453125 
L 39.90625 15.453125 
C 38.90625 8.375 38.09375 7.171875 37.703125 6.5625 
C 37.203125 5.765625 30 5.765625 28.59375 5.765625 
L 9.40625 5.765625 
C 13 9.671875 20 16.75 28.5 24.953125 
C 34.59375 30.734375 41.703125 37.53125 41.703125 47.421875 
C 41.703125 59.21875 32.296875 66 21.796875 66 
C 10.796875 66 4.09375 56.3125 4.09375 47.34375 
C 4.09375 43.4375 7 42.9375 8.203125 42.9375 
C 9.203125 42.9375 12.203125 43.546875 12.203125 47.03125 
C 12.203125 50.109375 9.59375 51 8.203125 51 
C 7.59375 51 7 50.90625 6.59375 50.703125 
C 8.5 59.21875 14.296875 63.40625 20.40625 63.40625 
C 29.09375 63.40625 34.796875 56.515625 34.796875 47.421875 
C 34.796875 38.734375 29.703125 31.25 24 24.75 
L 4.09375 2.28125 
L 4.09375 0 
L 39.296875 0 
z
" id="CMR17-50"/>
      </defs>
      <g style="fill:#262626;" transform="translate(170.963553 360.418498)scale(0.1 -0.1)">
       <use transform="scale(0.996264)" xlink:href="#CMR17-50"/>
      </g>
     </g>
    </g>
    <g id="xtick_3">
     <g id="line2d_5">
      <path clip-path="url(#p710c9ab25a)" d="M 254.617938 346.5 
L 254.617938 47.52 
" style="fill:none;stroke:#ffffff;stroke-linecap:round;"/>
     </g>
     <g id="line2d_6"/>
     <g id="text_3">
      <!-- $\mathdefault{4}$ -->
      <defs>
       <path d="M 33.59375 64.40625 
C 33.59375 66.5 33.5 66.5 31.703125 66.5 
L 2 19.59375 
L 2 17 
L 27.796875 17 
L 27.796875 7.140625 
C 27.796875 3.5 27.59375 2.5 20.59375 2.5 
L 18.703125 2.5 
L 18.703125 0 
C 21.90625 0 27.296875 0 30.703125 0 
C 34.09375 0 39.5 0 42.703125 0 
L 42.703125 2.5 
L 40.796875 2.5 
C 33.796875 2.5 33.59375 3.5 33.59375 7.140625 
L 33.59375 17 
L 43.796875 17 
L 43.796875 19.59375 
L 33.59375 19.59375 
z
M 28.09375 57.859375 
L 28.09375 19.59375 
L 4 19.59375 
z
" id="CMR17-52"/>
      </defs>
      <g style="fill:#262626;" transform="translate(252.127271 360.418498)scale(0.1 -0.1)">
       <use transform="scale(0.996264)" xlink:href="#CMR17-52"/>
      </g>
     </g>
    </g>
    <g id="xtick_4">
     <g id="line2d_7">
      <path clip-path="url(#p710c9ab25a)" d="M 335.781656 346.5 
L 335.781656 47.52 
" style="fill:none;stroke:#ffffff;stroke-linecap:round;"/>
     </g>
     <g id="line2d_8"/>
     <g id="text_4">
      <!-- $\mathdefault{6}$ -->
      <defs>
       <path d="M 10.59375 34 
C 10.59375 57.65625 21.796875 63 28.296875 63 
C 30.40625 63 35.5 62.640625 37.5 59 
C 35.90625 59 32.90625 59 32.90625 55.515625 
C 32.90625 52.828125 35.09375 51.921875 36.5 51.921875 
C 37.40625 51.921875 40.09375 52.3125 40.09375 55.625 
C 40.09375 61.78125 35.09375 65.296875 28.203125 65.296875 
C 16.296875 65.296875 3.796875 52.96875 3.796875 31 
C 3.796875 3.953125 15.09375 -2 23.09375 -2 
C 32.796875 -2 42 6.671875 42 20.046875 
C 42 32.515625 33.90625 41.59375 23.703125 41.59375 
C 17.59375 41.59375 13.09375 37.609375 10.59375 30.625 
z
M 23.09375 0.390625 
C 10.796875 0.390625 10.796875 18.75 10.796875 22.4375 
C 10.796875 29.625 14.203125 40 23.5 40 
C 25.203125 40 30.09375 40 33.40625 33.125 
C 35.203125 29.21875 35.203125 25.140625 35.203125 20.140625 
C 35.203125 14.75 35.203125 10.78125 33.09375 6.78125 
C 30.90625 2.671875 27.703125 0.390625 23.09375 0.390625 
z
" id="CMR17-54"/>
      </defs>
      <g style="fill:#262626;" transform="translate(333.290988 360.418498)scale(0.1 -0.1)">
       <use transform="scale(0.996264)" xlink:href="#CMR17-54"/>
      </g>
     </g>
    </g>
    <g id="xtick_5">
     <g id="line2d_9">
      <path clip-path="url(#p710c9ab25a)" d="M 416.945373 346.5 
L 416.945373 47.52 
" style="fill:none;stroke:#ffffff;stroke-linecap:round;"/>
     </g>
     <g id="line2d_10"/>
     <g id="text_5">
      <!-- $\mathdefault{8}$ -->
      <defs>
       <path d="M 27.203125 35.375 
C 33.5 38.546875 39.90625 43.328125 39.90625 50.984375 
C 39.90625 60.015625 31.09375 65.296875 23 65.296875 
C 13.90625 65.296875 5.90625 58.734375 5.90625 49.6875 
C 5.90625 47.203125 6.5 42.921875 10.40625 39.140625 
C 11.40625 38.15625 15.59375 35.171875 18.296875 33.28125 
C 13.796875 30.984375 3.296875 25.53125 3.296875 14.59375 
C 3.296875 4.359375 13.09375 -2 22.796875 -2 
C 33.5 -2 42.5 5.65625 42.5 15.78125 
C 42.5 24.84375 36.40625 29.015625 32.40625 31.703125 
z
M 14.09375 44.09375 
C 13.296875 44.59375 9.296875 47.671875 9.296875 52.359375 
C 9.296875 58.421875 15.59375 63 22.796875 63 
C 30.703125 63 36.5 57.4375 36.5 50.96875 
C 36.5 41.703125 26.09375 36.421875 25.59375 36.421875 
C 25.5 36.421875 25.40625 36.421875 24.59375 37.03125 
z
M 32.5 23.734375 
C 34 22.640625 38.796875 19.375 38.796875 13.296875 
C 38.796875 5.953125 31.40625 0.390625 23 0.390625 
C 13.90625 0.390625 7 6.84375 7 14.6875 
C 7 22.546875 13.09375 29.09375 20 32.1875 
z
" id="CMR17-56"/>
      </defs>
      <g style="fill:#262626;" transform="translate(414.454706 360.418498)scale(0.1 -0.1)">
       <use transform="scale(0.996264)" xlink:href="#CMR17-56"/>
      </g>
     </g>
    </g>
    <g id="xtick_6">
     <g id="line2d_11">
      <path clip-path="url(#p710c9ab25a)" d="M 498.109091 346.5 
L 498.109091 47.52 
" style="fill:none;stroke:#ffffff;stroke-linecap:round;"/>
     </g>
     <g id="line2d_12"/>
     <g id="text_6">
      <!-- $\mathdefault{10}$ -->
      <defs>
       <path d="M 26.59375 63.40625 
C 26.59375 65.5 26.5 65.5 25.09375 65.5 
C 21.203125 61.1875 15.296875 59.796875 9.703125 59.796875 
C 9.40625 59.796875 8.90625 59.796875 8.796875 59.5 
C 8.703125 59.296875 8.703125 59.09375 8.703125 57 
C 11.796875 57 17 57.59375 21 59.984375 
L 21 7.203125 
C 21 3.6875 20.796875 2.5 12.203125 2.5 
L 9.203125 2.5 
L 9.203125 0 
C 14 0 19 0 23.796875 0 
C 28.59375 0 33.59375 0 38.40625 0 
L 38.40625 2.5 
L 35.40625 2.5 
C 26.796875 2.5 26.59375 3.59375 26.59375 7.15625 
z
" id="CMR17-49"/>
      </defs>
      <g style="fill:#262626;" transform="translate(493.127756 360.418498)scale(0.1 -0.1)">
       <use transform="scale(0.996264)" xlink:href="#CMR17-49"/>
       <use transform="translate(45.690477 0)scale(0.996264)" xlink:href="#CMR17-48"/>
      </g>
     </g>
    </g>
    <g id="text_7">
     <!-- $\tau$ -->
     <defs>
      <path d="M 28.703125 37.625 
L 45.296875 37.625 
C 46.59375 37.625 49.90625 37.625 49.90625 40.8125 
C 49.90625 43 48 43 46.203125 43 
L 18.703125 43 
C 16.40625 43 13 43 8.40625 38.125 
C 5.796875 35.234375 2.59375 29.953125 2.59375 29.359375 
C 2.59375 28.765625 3.09375 28.5625 3.703125 28.5625 
C 4.40625 28.5625 4.5 28.859375 5 29.453125 
C 10.203125 37.625 15.40625 37.625 17.90625 37.625 
L 26.203125 37.625 
L 15.796875 3.484375 
C 15.296875 1.984375 15.296875 1.78125 15.296875 1.484375 
C 15.296875 0.390625 16 -1 18 -1 
C 21.09375 -1 21.59375 1.6875 21.90625 3.171875 
z
" id="CMMI12-28"/>
     </defs>
     <g style="fill:#262626;" transform="translate(292.804632 373.966023)scale(0.11 -0.11)">
      <use transform="scale(0.996264)" xlink:href="#CMMI12-28"/>
     </g>
    </g>
   </g>
   <g id="matplotlib.axis_2">
    <g id="ytick_1">
     <g id="line2d_13">
      <path clip-path="url(#p710c9ab25a)" d="M 72 332.910011 
L 518.4 332.910011 
" style="fill:none;stroke:#ffffff;stroke-linecap:round;"/>
     </g>
     <g id="line2d_14"/>
     <g id="text_8">
      <!-- $\mathdefault{0.00}$ -->
      <defs>
       <path d="M 18.40625 4.796875 
C 18.40625 7.6875 16 9.671875 13.59375 9.671875 
C 10.703125 9.671875 8.703125 7.28125 8.703125 4.890625 
C 8.703125 2 11.09375 0 13.5 0 
C 16.40625 0 18.40625 2.390625 18.40625 4.796875 
z
" id="CMMI12-58"/>
      </defs>
      <g style="fill:#262626;" transform="translate(47.288586 336.36926)scale(0.1 -0.1)">
       <use transform="scale(0.996264)" xlink:href="#CMR17-48"/>
       <use transform="translate(45.690477 0)scale(0.996264)" xlink:href="#CMMI12-58"/>
       <use transform="translate(72.787654 0)scale(0.996264)" xlink:href="#CMR17-48"/>
       <use transform="translate(118.478131 0)scale(0.996264)" xlink:href="#CMR17-48"/>
      </g>
     </g>
    </g>
    <g id="ytick_2">
     <g id="line2d_15">
      <path clip-path="url(#p710c9ab25a)" d="M 72 293.162503 
L 518.4 293.162503 
" style="fill:none;stroke:#ffffff;stroke-linecap:round;"/>
     </g>
     <g id="line2d_16"/>
     <g id="text_9">
      <!-- $\mathdefault{0.01}$ -->
      <g style="fill:#262626;" transform="translate(47.288586 296.621752)scale(0.1 -0.1)">
       <use transform="scale(0.996264)" xlink:href="#CMR17-48"/>
       <use transform="translate(45.690477 0)scale(0.996264)" xlink:href="#CMMI12-58"/>
       <use transform="translate(72.787654 0)scale(0.996264)" xlink:href="#CMR17-48"/>
       <use transform="translate(118.478131 0)scale(0.996264)" xlink:href="#CMR17-49"/>
      </g>
     </g>
    </g>
    <g id="ytick_3">
     <g id="line2d_17">
      <path clip-path="url(#p710c9ab25a)" d="M 72 253.414995 
L 518.4 253.414995 
" style="fill:none;stroke:#ffffff;stroke-linecap:round;"/>
     </g>
     <g id="line2d_18"/>
     <g id="text_10">
      <!-- $\mathdefault{0.02}$ -->
      <g style="fill:#262626;" transform="translate(47.288586 256.874244)scale(0.1 -0.1)">
       <use transform="scale(0.996264)" xlink:href="#CMR17-48"/>
       <use transform="translate(45.690477 0)scale(0.996264)" xlink:href="#CMMI12-58"/>
       <use transform="translate(72.787654 0)scale(0.996264)" xlink:href="#CMR17-48"/>
       <use transform="translate(118.478131 0)scale(0.996264)" xlink:href="#CMR17-50"/>
      </g>
     </g>
    </g>
    <g id="ytick_4">
     <g id="line2d_19">
      <path clip-path="url(#p710c9ab25a)" d="M 72 213.667487 
L 518.4 213.667487 
" style="fill:none;stroke:#ffffff;stroke-linecap:round;"/>
     </g>
     <g id="line2d_20"/>
     <g id="text_11">
      <!-- $\mathdefault{0.03}$ -->
      <defs>
       <path d="M 22.09375 33.703125 
C 31 33.703125 34.90625 25.96875 34.90625 17.03125 
C 34.90625 5 28.5 0.390625 22.703125 0.390625 
C 17.40625 0.390625 8.796875 3.03125 6.09375 10.828125 
C 6.59375 10.625 7.09375 10.625 7.59375 10.625 
C 10 10.625 11.796875 12.21875 11.796875 14.8125 
C 11.796875 17.703125 9.59375 19 7.59375 19 
C 5.90625 19 3.296875 18.203125 3.296875 14.46875 
C 3.296875 5.234375 12.296875 -2 22.90625 -2 
C 34 -2 42.5 6.71875 42.5 16.953125 
C 42.5 26.671875 34.5 33.703125 25 34.796875 
C 32.59375 36.375 39.90625 43.0625 39.90625 52.015625 
C 39.90625 59.6875 32 65.296875 23 65.296875 
C 13.90625 65.296875 5.90625 59.828125 5.90625 52.015625 
C 5.90625 48.59375 8.5 48 9.796875 48 
C 11.90625 48 13.703125 49.296875 13.703125 51.890625 
C 13.703125 54.46875 11.90625 55.765625 9.796875 55.765625 
C 9.40625 55.765625 8.90625 55.765625 8.5 55.578125 
C 11.40625 61.859375 19.296875 63 22.796875 63 
C 26.296875 63 32.90625 61.328125 32.90625 51.875 
C 32.90625 49.109375 32.5 44.1875 29.09375 39.84375 
C 26.09375 36 22.703125 36 19.40625 35.6875 
C 18.90625 35.6875 16.59375 35.453125 16.203125 35.453125 
C 15.5 35.359375 15.09375 35.265625 15.09375 34.5 
C 15.09375 33.796875 15.203125 33.703125 17.203125 33.703125 
z
" id="CMR17-51"/>
      </defs>
      <g style="fill:#262626;" transform="translate(47.288586 217.126736)scale(0.1 -0.1)">
       <use transform="scale(0.996264)" xlink:href="#CMR17-48"/>
       <use transform="translate(45.690477 0)scale(0.996264)" xlink:href="#CMMI12-58"/>
       <use transform="translate(72.787654 0)scale(0.996264)" xlink:href="#CMR17-48"/>
       <use transform="translate(118.478131 0)scale(0.996264)" xlink:href="#CMR17-51"/>
      </g>
     </g>
    </g>
    <g id="ytick_5">
     <g id="line2d_21">
      <path clip-path="url(#p710c9ab25a)" d="M 72 173.919979 
L 518.4 173.919979 
" style="fill:none;stroke:#ffffff;stroke-linecap:round;"/>
     </g>
     <g id="line2d_22"/>
     <g id="text_12">
      <!-- $\mathdefault{0.04}$ -->
      <g style="fill:#262626;" transform="translate(47.288586 177.379228)scale(0.1 -0.1)">
       <use transform="scale(0.996264)" xlink:href="#CMR17-48"/>
       <use transform="translate(45.690477 0)scale(0.996264)" xlink:href="#CMMI12-58"/>
       <use transform="translate(72.787654 0)scale(0.996264)" xlink:href="#CMR17-48"/>
       <use transform="translate(118.478131 0)scale(0.996264)" xlink:href="#CMR17-52"/>
      </g>
     </g>
    </g>
    <g id="ytick_6">
     <g id="line2d_23">
      <path clip-path="url(#p710c9ab25a)" d="M 72 134.172471 
L 518.4 134.172471 
" style="fill:none;stroke:#ffffff;stroke-linecap:round;"/>
     </g>
     <g id="line2d_24"/>
     <g id="text_13">
      <!-- $\mathdefault{0.05}$ -->
      <defs>
       <path d="M 11.40625 57.6875 
C 12.40625 57.28125 16.5 56 20.703125 56 
C 30 56 35.09375 61.109375 38 64.0625 
C 38 64.953125 38 65.5 37.40625 65.5 
C 37.296875 65.5 37.09375 65.5 36.296875 65.046875 
C 32.796875 63.40625 28.703125 62.078125 23.703125 62.078125 
C 20.703125 62.078125 16.203125 62.484375 11.296875 64.671875 
C 10.203125 65.171875 10 65.171875 9.90625 65.171875 
C 9.40625 65.171875 9.296875 65.0625 9.296875 63.078125 
L 9.296875 34.421875 
C 9.296875 32.640625 9.296875 32.140625 10.296875 32.140625 
C 10.796875 32.140625 11 32.34375 11.5 33.03125 
C 14.703125 37.515625 19.09375 39.40625 24.09375 39.40625 
C 27.59375 39.40625 35.09375 37.21875 35.09375 20.140625 
C 35.09375 16.953125 35.09375 11.171875 32.09375 6.578125 
C 29.59375 2.484375 25.703125 0.390625 21.40625 0.390625 
C 14.796875 0.390625 8.09375 5 6.296875 12.71875 
C 6.703125 12.609375 7.5 12.421875 7.90625 12.421875 
C 9.203125 12.421875 11.703125 13.125 11.703125 16.21875 
C 11.703125 18.90625 9.796875 20 7.90625 20 
C 5.59375 20 4.09375 18.59375 4.09375 15.796875 
C 4.09375 7.09375 11 -2 21.59375 -2 
C 31.90625 -2 41.703125 6.875 41.703125 19.75 
C 41.703125 31.71875 33.90625 41 24.203125 41 
C 19.09375 41 14.796875 39.109375 11.40625 35.53125 
z
" id="CMR17-53"/>
      </defs>
      <g style="fill:#262626;" transform="translate(47.288586 137.631721)scale(0.1 -0.1)">
       <use transform="scale(0.996264)" xlink:href="#CMR17-48"/>
       <use transform="translate(45.690477 0)scale(0.996264)" xlink:href="#CMMI12-58"/>
       <use transform="translate(72.787654 0)scale(0.996264)" xlink:href="#CMR17-48"/>
       <use transform="translate(118.478131 0)scale(0.996264)" xlink:href="#CMR17-53"/>
      </g>
     </g>
    </g>
    <g id="ytick_7">
     <g id="line2d_25">
      <path clip-path="url(#p710c9ab25a)" d="M 72 94.424964 
L 518.4 94.424964 
" style="fill:none;stroke:#ffffff;stroke-linecap:round;"/>
     </g>
     <g id="line2d_26"/>
     <g id="text_14">
      <!-- $\mathdefault{0.06}$ -->
      <g style="fill:#262626;" transform="translate(47.288586 97.884213)scale(0.1 -0.1)">
       <use transform="scale(0.996264)" xlink:href="#CMR17-48"/>
       <use transform="translate(45.690477 0)scale(0.996264)" xlink:href="#CMMI12-58"/>
       <use transform="translate(72.787654 0)scale(0.996264)" xlink:href="#CMR17-48"/>
       <use transform="translate(118.478131 0)scale(0.996264)" xlink:href="#CMR17-54"/>
      </g>
     </g>
    </g>
    <g id="ytick_8">
     <g id="line2d_27">
      <path clip-path="url(#p710c9ab25a)" d="M 72 54.677456 
L 518.4 54.677456 
" style="fill:none;stroke:#ffffff;stroke-linecap:round;"/>
     </g>
     <g id="line2d_28"/>
     <g id="text_15">
      <!-- $\mathdefault{0.07}$ -->
      <defs>
       <path d="M 45.09375 61.578125 
L 45.09375 63.765625 
L 21.59375 63.765625 
C 9.90625 63.765625 9.703125 65.078125 9.296875 67 
L 7.5 67 
L 4.59375 48.34375 
L 6.40625 48.34375 
C 6.703125 50.234375 7.40625 55.3125 8.59375 57.203125 
C 9.203125 58 16.59375 58 18.296875 58 
L 40.296875 58 
L 29.203125 41.578125 
C 21.796875 30.53125 16.703125 15.609375 16.703125 2.578125 
C 16.703125 1.390625 16.703125 -2 20.296875 -2 
C 23.90625 -2 23.90625 1.390625 23.90625 2.671875 
L 23.90625 7.265625 
C 23.90625 23.5625 26.703125 34.3125 31.296875 41.1875 
z
" id="CMR17-55"/>
      </defs>
      <g style="fill:#262626;" transform="translate(47.288586 58.136705)scale(0.1 -0.1)">
       <use transform="scale(0.996264)" xlink:href="#CMR17-48"/>
       <use transform="translate(45.690477 0)scale(0.996264)" xlink:href="#CMMI12-58"/>
       <use transform="translate(72.787654 0)scale(0.996264)" xlink:href="#CMR17-48"/>
       <use transform="translate(118.478131 0)scale(0.996264)" xlink:href="#CMR17-55"/>
      </g>
     </g>
    </g>
    <g id="text_16">
     <!-- $\tau \textit{ bounds }$ -->
     <defs>
      <path d="M 29.703125 69 
L 22.296875 69 
L 7.5 -0.203125 
L 15.09375 -0.203125 
L 16 4.28125 
C 18.90625 0.796875 23.09375 -1 27.5 -1 
C 38.703125 -1 50.40625 12.34375 50.40625 27.953125 
C 50.40625 34.875 47.40625 43.0625 39.40625 43.0625 
C 36.296875 43.0625 30 42.375 23.09375 37.796875 
z
M 22 31.96875 
C 25.703125 35.71875 29.59375 37 32.796875 37 
C 38 37 42.59375 33.734375 42.59375 26.25 
C 42.59375 15.71875 35.59375 5.078125 25 5.078125 
C 18.90625 5.078125 17.5 10.390625 17.5 10.890625 
C 17.5 11.375 17.59375 11.78125 17.703125 12.15625 
z
" id="CMSSI17-98"/>
      <path d="M 49.296875 26.296875 
C 49.296875 37 42.203125 44 32.796875 44 
C 19.5 44 6.703125 30.203125 6.703125 16.203125 
C 6.703125 6.296875 13.5 -1 23.296875 -1 
C 36.40625 -1 49.296875 11.90625 49.296875 26.296875 
z
M 24.59375 5.265625 
C 18.90625 5.265625 14.40625 9.1875 14.40625 16.890625 
C 14.40625 27.515625 21.40625 37.921875 31.5 37.921875 
C 37.5 37.921875 41.90625 33.90625 41.90625 26.8125 
C 41.90625 17.5 35.40625 5.265625 24.59375 5.265625 
z
" id="CMSSI17-111"/>
      <path d="M 50 42.5 
L 42.40625 42.5 
L 36.40625 14.5 
C 35.203125 8.734375 29.796875 4.78125 23.296875 4.78125 
C 18.703125 4.78125 17 5.671875 17 8.359375 
C 17 9.15625 17.296875 10.453125 17.296875 10.546875 
L 24.09375 42.5 
L 16.5 42.5 
L 9.59375 10.3125 
C 9.296875 8.9375 9.09375 8.046875 9.09375 5.953125 
C 9.09375 -0.203125 13.5 -1 16.796875 -1 
C 23.203125 -1 29.296875 0.984375 34.5 4.6875 
L 33.5 -0.203125 
L 40.90625 -0.203125 
z
" id="CMSSI17-117"/>
      <path d="M 47.203125 29.75 
C 47.59375 31.4375 47.703125 32.34375 47.703125 34.8125 
C 47.703125 41.078125 44.203125 44.0625 37.296875 44.0625 
C 28.796875 44.0625 23 37.796875 22.59375 37.390625 
L 23.90625 43.5625 
L 16.59375 43.5625 
L 7.40625 0.5 
L 15 0.5 
L 19.59375 21.984375 
C 20.5 26.265625 23.09375 38 32.203125 38 
C 37.5 38 39.796875 35.90625 39.796875 32.015625 
C 39.796875 30.625 39.703125 30.234375 39.59375 29.734375 
L 33.296875 0.5 
L 40.90625 0.5 
z
" id="CMSSI17-110"/>
      <path d="M 55.59375 69.5 
L 48.203125 69.5 
L 41.703125 39.09375 
C 36.90625 43.875 31.203125 43.875 28.90625 43.875 
C 17.90625 43.875 7.203125 29.640625 7.203125 15.234375 
C 7.203125 6.859375 11.296875 -0.5 19.203125 -0.5 
C 21.703125 -0.5 27.703125 0.09375 34.296875 5.3125 
L 33.203125 0.296875 
L 40.796875 0.296875 
z
M 35.703125 11.90625 
C 34.203125 9.90625 30.09375 5.609375 24.59375 5.609375 
C 21.59375 5.609375 14.90625 6.890625 14.90625 16.59375 
C 14.90625 28 22.40625 38 32.40625 38 
C 36.796875 38 39.09375 35.484375 40.203125 33.296875 
z
" id="CMSSI17-100"/>
      <path d="M 40.90625 40.984375 
C 37.09375 42.96875 33.40625 43.96875 28.09375 43.96875 
C 12 43.96875 9.59375 32.46875 9.59375 29.078125 
C 9.59375 20.96875 17.703125 19.265625 20.796875 18.578125 
C 26 17.46875 29.40625 16.765625 29.40625 12.671875 
C 29.40625 10.78125 28 5.265625 19.5 5.265625 
C 16.203125 5.265625 10.703125 5.96875 6 9.96875 
L 3.40625 3.28125 
C 6.703125 0.984375 11.90625 -1 18.203125 -1 
C 33.40625 -1 36.703125 10.296875 36.703125 14.796875 
C 36.703125 23.390625 28.5 25.09375 24.59375 25.90625 
C 20.203125 26.796875 16.90625 27.5 16.90625 31.1875 
C 16.90625 31.484375 16.90625 38 25.90625 38 
C 30.09375 38 34 37.203125 38.40625 34.59375 
z
" id="CMSSI17-115"/>
     </defs>
     <g style="fill:#262626;" transform="translate(41.157691 218.168738)rotate(-90)scale(0.11 -0.11)">
      <use transform="scale(0.996264)" xlink:href="#CMMI12-28"/>
      <use transform="translate(84.720278 0)scale(0.996264)" xlink:href="#CMSSI17-98"/>
      <use transform="translate(135.52766 0)scale(0.996264)" xlink:href="#CMSSI17-111"/>
      <use transform="translate(182.371283 0)scale(0.996264)" xlink:href="#CMSSI17-117"/>
      <use transform="translate(230.576227 0)scale(0.996264)" xlink:href="#CMSSI17-110"/>
      <use transform="translate(278.78117 0)scale(0.996264)" xlink:href="#CMSSI17-100"/>
      <use transform="translate(326.986113 0)scale(0.996264)" xlink:href="#CMSSI17-115"/>
     </g>
    </g>
   </g>
   <g id="line2d_29">
    <path clip-path="url(#p710c9ab25a)" d="M 92.290909 332.91 
L 96.390083 303.589809 
L 100.489256 276.049818 
L 104.58843 252.337488 
L 108.687603 229.505865 
L 112.786777 209.967791 
L 116.88595 190.918501 
L 120.985124 175.123236 
L 125.084298 159.467593 
L 129.183471 146.984148 
L 133.282645 134.11929 
L 137.381818 124.459448 
L 141.480992 114.203116 
L 145.580165 107.001787 
L 149.679339 98.833674 
L 153.778512 93.685705 
L 157.877686 87.288785 
L 161.97686 83.793292 
L 166.076033 78.790134 
L 170.175207 76.576703 
L 174.27438 72.649438 
L 178.373554 71.413355 
L 182.472727 68.304794 
L 186.571901 67.803685 
L 190.671074 65.311649 
L 194.770248 65.35735 
L 198.869421 63.326182 
L 202.968595 63.775168 
L 207.067769 62.086825 
L 211.166942 62.831011 
L 215.266116 61.396943 
L 219.365289 62.355692 
L 223.464463 61.11 
L 227.563636 62.223559 
L 231.66281 61.117473 
L 235.761983 62.341787 
L 239.861157 61.339357 
L 243.960331 62.642062 
L 248.059504 61.716862 
L 252.158678 63.07425 
L 256.257851 62.206888 
L 260.357025 63.601625 
L 264.456198 62.777887 
L 268.555372 64.197326 
L 272.654545 63.406796 
L 276.753719 64.841718 
L 280.852893 64.076764 
L 284.952066 65.520463 
L 289.05124 64.775489 
L 293.150413 66.223091 
L 297.249587 65.49399 
L 301.34876 66.94196 
L 305.447934 66.225712 
L 309.547107 67.671495 
L 313.646281 66.965873 
L 317.745455 68.407625 
L 321.844628 67.710984 
L 325.943802 69.147382 
L 330.042975 68.458502 
L 334.142149 69.888601 
L 338.241322 69.206572 
L 342.340496 70.629705 
L 346.439669 69.953843 
L 350.538843 71.369544 
L 354.638017 70.699333 
L 358.73719 72.107285 
L 362.836364 71.44233 
L 366.935537 72.842322 
L 371.034711 72.182318 
L 375.133884 73.574217 
L 379.233058 72.918926 
L 383.332231 74.302657 
L 387.431405 73.651889 
L 391.530579 75.027419 
L 395.629752 74.381022 
L 399.728926 75.748347 
L 403.828099 75.106193 
L 407.927273 76.465333 
L 412.026446 75.827317 
L 416.12562 77.178306 
L 420.224793 76.544337 
L 424.323967 77.887221 
L 428.42314 77.257221 
L 432.522314 78.592054 
L 436.621488 77.965951 
L 440.720661 79.292795 
L 444.819835 78.670527 
L 448.919008 79.989445 
L 453.018182 79.370953 
L 457.117355 80.682013 
L 461.216529 80.067244 
L 465.315702 81.370515 
L 469.414876 80.759418 
L 473.51405 82.05497 
L 477.613223 81.447498 
L 481.712397 82.735403 
L 485.81157 82.131509 
L 489.910744 83.411838 
L 494.009917 82.811481 
L 498.109091 84.084304 
" style="fill:none;stroke:#4c72b0;stroke-linecap:round;stroke-width:1.75;"/>
   </g>
   <g id="line2d_30">
    <path clip-path="url(#p710c9ab25a)" d="M 92.290909 332.91 
L 96.390083 305.736009 
L 100.489256 280.937972 
L 104.58843 259.853611 
L 108.687603 239.917342 
L 112.786777 222.863769 
L 116.88595 206.462579 
L 120.985124 192.724872 
L 125.084298 179.310931 
L 129.183471 168.397544 
L 133.282645 157.378822 
L 137.381818 148.846386 
L 141.480992 140.061374 
L 145.580165 133.608279 
L 149.679339 126.613299 
L 153.778512 121.907808 
L 157.877686 116.439564 
L 161.97686 113.149753 
L 166.076033 108.887966 
L 170.175207 106.702973 
L 174.27438 103.375855 
L 178.373554 102.03771 
L 182.472727 99.423837 
L 186.571901 98.725835 
L 190.671074 96.650155 
L 194.770248 96.430873 
L 198.869421 94.758007 
L 202.968595 94.893733 
L 207.067769 93.520654 
L 211.166942 93.917868 
L 215.266116 92.767079 
L 219.365289 93.355787 
L 223.464463 92.369491 
L 227.563636 93.097685 
L 231.66281 92.233038 
L 235.761983 93.062276 
L 239.861157 92.287656 
L 243.960331 93.18963 
L 248.059504 92.48177 
L 252.158678 93.435692 
L 256.257851 92.777507 
L 260.357025 93.76814 
L 264.456198 93.147102 
L 268.555372 94.163293 
L 272.654545 93.570221 
L 276.753719 94.603811 
L 280.852893 94.031981 
L 284.952066 95.07701 
L 289.05124 94.521491 
L 293.150413 95.573604 
L 297.249587 95.030785 
L 301.34876 96.0868 
L 305.447934 95.554028 
L 309.547107 96.611624 
L 313.646281 96.086949 
L 317.745455 97.144432 
L 321.844628 96.626419 
L 325.943802 97.682552 
L 330.042975 97.170139 
L 334.142149 98.224022 
L 338.241322 97.716425 
L 342.340496 98.767401 
L 346.439669 98.264035 
L 350.538843 99.311628 
L 354.638017 98.812056 
L 358.73719 99.855922 
L 362.836364 99.359813 
L 366.935537 100.399703 
L 371.034711 99.906808 
L 375.133884 100.942545 
L 379.233058 100.452672 
L 383.332231 101.484129 
L 387.431405 100.99713 
L 391.530579 102.024221 
L 395.629752 101.539978 
L 399.728926 102.562643 
L 403.828099 102.081064 
L 407.927273 103.099266 
L 412.026446 102.620274 
L 416.12562 103.63399 
L 420.224793 103.157523 
L 424.323967 104.166742 
L 428.42314 103.692747 
L 432.522314 104.697467 
L 436.621488 104.2259 
L 440.720661 105.226124 
L 444.819835 104.756945 
L 448.919008 105.752683 
L 453.018182 105.285857 
L 457.117355 106.277121 
L 461.216529 105.812617 
L 465.315702 106.799423 
L 469.414876 106.337211 
L 473.51405 107.319578 
L 477.613223 106.859631 
L 481.712397 107.837577 
L 485.81157 107.379871 
L 489.910744 108.353417 
L 494.009917 107.897928 
L 498.109091 108.867096 
" style="fill:none;stroke:#55a868;stroke-linecap:round;stroke-width:1.75;"/>
   </g>
   <g id="patch_3">
    <path d="M 72 346.5 
L 72 47.52 
" style="fill:none;"/>
   </g>
   <g id="patch_4">
    <path d="M 518.4 346.5 
L 518.4 47.52 
" style="fill:none;"/>
   </g>
   <g id="patch_5">
    <path d="M 72 346.5 
L 518.4 346.5 
" style="fill:none;"/>
   </g>
   <g id="patch_6">
    <path d="M 72 47.52 
L 518.4 47.52 
" style="fill:none;"/>
   </g>
   <g id="text_17">
    <!-- $\textit{target bits }0 | 1 | 2 | 3 \quad \textit{N = }5 \\\textit{ temperatures } =1.0|1.0|1.0|1.0|1.0|1.0|1.2|1.2|1.2|1.2\quad T_p=1.0 $ -->
    <defs>
     <path d="M 24.59375 37 
L 37.59375 37 
L 38.796875 42.765625 
L 25.796875 42.765625 
L 28.5 55 
L 21.40625 55 
L 18.703125 42.765625 
L 10.796875 42.765625 
L 9.59375 37 
L 17.296875 37 
C 16.59375 33.59375 12.703125 15.5 12.40625 13.890625 
C 11.5 9.5 11.296875 8.609375 11.296875 6.390625 
C 11.296875 0.09375 14.296875 -1 17.203125 -1 
C 24.203125 -1 30 1.78125 31.90625 2.6875 
L 31.59375 8.5625 
C 28.296875 6.171875 25 5.265625 22.5 5.265625 
C 20.203125 5.265625 19.09375 6.671875 19.09375 9.6875 
C 19.09375 10.78125 19.203125 11.375 19.40625 12.171875 
z
" id="CMSSI17-116"/>
     <path d="M 43.59375 28.1875 
C 44 30.1875 44.09375 30.59375 44.09375 31.78125 
C 44.09375 37.375 40.5 43.875 31.296875 43.875 
C 27.203125 43.875 22.09375 43.171875 15.703125 39.890625 
L 15 33.40625 
C 19.796875 36.203125 24.296875 38 30 38 
C 35.59375 38 36.40625 33.171875 36.40625 30.953125 
C 36.40625 29.75 35.703125 26.328125 35.203125 24 
C 26 24 6.09375 21.890625 6.09375 8.3125 
C 6.09375 7.5 6.09375 -1 14.703125 -1 
C 16.59375 -1 24.59375 -1 31 3.390625 
L 30.203125 -0.296875 
L 37.59375 -0.296875 
z
M 34.09375 18.625 
C 33.796875 17.171875 32.703125 11.65625 32.40625 10.78125 
C 30.703125 6.421875 24.59375 4.984375 20.796875 4.984375 
C 17.796875 4.984375 13.703125 6.21875 13.703125 10.453125 
C 13.703125 18.625 30.90625 18.625 34.09375 18.625 
z
" id="CMSSI17-97"/>
     <path d="M 18.59375 17.5 
C 20.09375 24.203125 20.703125 27.40625 25.296875 31.796875 
C 27 33.40625 31.5 37 38.5 37 
L 39.90625 43.578125 
C 30.5 43.578125 25 38.015625 22.09375 35.203125 
L 23.796875 43.171875 
L 16.703125 43.171875 
L 7.5 0 
L 14.90625 0 
z
" id="CMSSI17-114"/>
     <path d="M 41.09375 37.703125 
C 41.203125 37.703125 41.40625 37.703125 41.5 37.703125 
C 43.203125 37.703125 45.59375 38 47.40625 38 
C 50.5 38 51 37.890625 53.59375 37.609375 
L 53.796875 43.671875 
C 46.59375 43.671875 41.40625 41.875 38.5 40.6875 
C 35.296875 43.671875 31.703125 43.671875 30.09375 43.671875 
C 20.40625 43.671875 11.203125 34.546875 11.203125 25.125 
C 11.203125 24.546875 11.296875 21.515625 12.796875 18.953125 
C 10.09375 16.171875 7.90625 12.171875 7.90625 8.1875 
C 7.90625 5.6875 8.703125 3.984375 9.09375 3.390625 
C 4.203125 0.6875 0.90625 -4.296875 0.90625 -8.5 
C 0.90625 -14.90625 8.296875 -20 19.09375 -20 
C 29.203125 -20 43.09375 -15 43.09375 -3.625 
C 43.09375 3.0625 38.796875 7.265625 26.203125 7.265625 
L 18.203125 7.265625 
C 16.40625 7.265625 13.59375 7.265625 13.59375 11.078125 
C 13.59375 13.375 14.90625 15.1875 15.40625 15.78125 
C 17 14.484375 19.796875 13 23.59375 13 
C 33 13 42.40625 21.859375 42.40625 31.59375 
C 42.40625 33.765625 42 36.015625 41 37.703125 
z
M 24.703125 18.46875 
C 21.296875 18.46875 18.296875 20.421875 18.296875 25.140625 
C 18.296875 30.640625 21.703125 38.296875 29 38.296875 
C 32.296875 38.296875 35.40625 36.4375 35.40625 31.625 
C 35.40625 26.515625 32.203125 18.46875 24.703125 18.46875 
z
M 24.59375 0 
C 31.203125 0 35.796875 -1.40625 35.796875 -5.71875 
C 35.796875 -10.71875 28.203125 -14.515625 20.296875 -14.515625 
C 13.5 -14.515625 8.09375 -11.8125 8.09375 -7.71875 
C 8.09375 -6.8125 9.09375 0 16.59375 0 
z
" id="CMSSI17-103"/>
     <path d="M 43.796875 21.515625 
C 44.40625 24.140625 44.703125 26.859375 44.703125 29.578125 
C 44.703125 41.484375 37.09375 44 31.59375 44 
C 19.203125 44 7.09375 30.390625 7.09375 16.40625 
C 7.09375 5.5 14.40625 -1 23.40625 -1 
C 27.5 -1 33.09375 0 39.5 3.875 
L 40.203125 10.234375 
C 33.5 5.5625 27.296875 5.078125 24.90625 5.078125 
C 18.203125 5.078125 14.296875 10.3125 14.296875 17.25 
C 14.296875 21.515625 14.59375 21.515625 16.59375 21.515625 
z
M 16.703125 27 
C 19.90625 33.734375 25.5 37.921875 30.203125 37.921875 
C 38.40625 37.921875 38.40625 29.4375 38.40625 27 
z
" id="CMSSI17-101"/>
     <path d="M 29.203125 65.359375 
L 20.796875 65.359375 
L 19.09375 57 
L 27.5 57 
z
M 7.40625 0 
L 14.796875 0 
L 23.90625 42.6875 
L 16.5 42.6875 
z
" id="CMSSI17-105"/>
     <path d="M 15.90625 71.40625 
C 15.90625 73.203125 15.90625 75 13.90625 75 
C 11.90625 75 11.90625 73.203125 11.90625 71.40625 
L 11.90625 -21.40625 
C 11.90625 -23.203125 11.90625 -25 13.90625 -25 
C 15.90625 -25 15.90625 -23.203125 15.90625 -21.40625 
z
" id="CMSY10-106"/>
     <path d="M 72.203125 69 
L 64.40625 69 
L 51.296875 7.65625 
L 51.203125 7.65625 
C 50.5 11.140625 49.59375 14.609375 48.59375 18.578125 
L 35.90625 69 
L 23.59375 69 
L 8.796875 0 
L 16.59375 0 
L 29.703125 61.34375 
L 29.796875 61.34375 
C 30.296875 58.65625 31.703125 53.390625 34.203125 43.234375 
L 45.09375 0 
L 57.40625 0 
z
" id="CMSSI17-78"/>
     <path d="M 72 31.515625 
C 73.296875 31.515625 75 31.515625 75 33.203125 
C 75 35 73 35 71.59375 35 
L 15.796875 35 
C 14.09375 35 12.40625 35 12.40625 33.203125 
C 12.40625 31.515625 13.90625 31.515625 15.296875 31.515625 
z
M 67.796875 14 
C 69.5 14 71.203125 14 71.203125 15.796875 
C 71.203125 17.484375 69.703125 17.484375 68.296875 17.484375 
L 11.59375 17.484375 
C 10.296875 17.484375 8.59375 17.484375 8.59375 15.796875 
C 8.59375 14 10.59375 14 12 14 
z
" id="CMSSI17-61"/>
     <path d="M 73.296875 29.75 
C 73.5 30.546875 73.796875 32.9375 73.796875 34.703125 
C 73.796875 37.296875 73.796875 44.0625 63.40625 44.0625 
C 55.59375 44.0625 50.40625 39.1875 47.796875 36.609375 
C 47 41.984375 43.203125 44.0625 37.40625 44.0625 
C 29.90625 44.0625 24.40625 39.3125 22.59375 37.40625 
L 23.90625 43.5625 
L 16.59375 43.5625 
L 7.40625 0.5 
L 15 0.5 
L 19.59375 21.984375 
C 20.5 26.359375 23.09375 38 32.296875 38 
C 36.90625 38 39.90625 36.40625 39.90625 32.015625 
C 39.90625 30.625 39.796875 30.234375 39.703125 29.734375 
L 33.40625 0.5 
L 41 0.5 
L 45.59375 21.984375 
C 46.5 26.359375 49.09375 38 58.296875 38 
C 62.90625 38 65.90625 36.40625 65.90625 32.015625 
C 65.90625 30.625 65.796875 30.234375 65.703125 29.734375 
L 59.40625 0.5 
L 67 0.5 
z
" id="CMSSI17-109"/>
     <path d="M 16 4.28125 
C 17.5 2.390625 21.40625 -1 27.5 -1 
C 39 -1 50.40625 12.703125 50.40625 28.1875 
C 50.40625 33.546875 48.296875 43.265625 39.59375 43.265625 
C 36.796875 43.265625 29.90625 42.578125 23.09375 37.890625 
L 24 42.46875 
L 16.59375 42.46875 
L 3.40625 -19.5 
L 11 -19.5 
z
M 22 32.03125 
C 26 35.90625 30 37 32.703125 37 
C 38.40625 37 42.40625 32.4375 42.40625 25.296875 
C 42.40625 14.203125 33.203125 5.078125 25 5.078125 
C 21.296875 5.078125 18.703125 6.96875 17.5 10.734375 
z
" id="CMSSI17-112"/>
     <path d="M 64.296875 31.515625 
C 65.796875 31.515625 67.296875 31.515625 67.296875 33.203125 
C 67.296875 35 65.59375 35 63.90625 35 
L 8 35 
C 6.296875 35 4.59375 35 4.59375 33.203125 
C 4.59375 31.515625 6.09375 31.515625 7.59375 31.515625 
z
M 63.90625 14 
C 65.59375 14 67.296875 14 67.296875 15.796875 
C 67.296875 17.484375 65.796875 17.484375 64.296875 17.484375 
L 7.59375 17.484375 
C 6.09375 17.484375 4.59375 17.484375 4.59375 15.796875 
C 4.59375 14 6.296875 14 8 14 
z
" id="CMR17-61"/>
     <path d="M 41.703125 61.09375 
C 42.296875 63.5 42.5 64.390625 44 64.796875 
C 44.796875 65 48.09375 65 50.203125 65 
C 60.203125 65 64.90625 64.59375 64.90625 56.78125 
C 64.90625 55.265625 64.5 51.484375 63.90625 47.765625 
L 63.796875 46.5625 
C 63.796875 46.15625 64.203125 45.5625 64.796875 45.5625 
C 65.796875 45.5625 65.796875 46.0625 66.09375 47.65625 
L 69 65.375 
C 69.203125 66.296875 69.203125 66.5 69.203125 66.796875 
C 69.203125 67.890625 68.59375 67.890625 66.59375 67.890625 
L 11.90625 67.890625 
C 9.59375 67.890625 9.5 67.796875 8.90625 66 
L 2.796875 47.96875 
C 2.703125 47.75 2.40625 46.65625 2.40625 46.5625 
C 2.40625 46.0625 2.796875 45.5625 3.40625 45.5625 
C 4.203125 45.5625 4.40625 45.953125 4.796875 47.25 
C 9 59.390625 11.09375 65 24.40625 65 
L 31.09375 65 
C 33.5 65 34.5 65 34.5 63.890625 
C 34.5 63.578125 34.5 63.390625 34 61.578125 
L 20.59375 7.796875 
C 19.59375 3.890625 19.40625 2.890625 8.796875 2.890625 
C 6.296875 2.890625 5.59375 2.890625 5.59375 1 
C 5.59375 0 6.703125 0 7.203125 0 
C 9.703125 0 12.296875 0 14.796875 0 
L 30.40625 0 
C 32.90625 0 35.59375 0 38.09375 0 
C 39.203125 0 40.203125 0 40.203125 1.890625 
C 40.203125 2.890625 39.5 2.890625 36.90625 2.890625 
C 27.90625 2.890625 27.90625 3.796875 27.90625 5.296875 
C 27.90625 5.40625 27.90625 6.109375 28.296875 7.71875 
z
" id="CMMI12-84"/>
     <path d="M 4.296875 -12.328125 
C 3.59375 -15.3125 3.203125 -16.109375 -0.90625 -16.109375 
C -2.09375 -16.109375 -3.09375 -16.109375 -3.09375 -18 
C -3.09375 -18.203125 -3 -19 -1.90625 -19 
C -0.59375 -19 0.796875 -19 2.09375 -19 
L 6.40625 -19 
C 8.5 -19 13.59375 -19 15.703125 -19 
C 16.296875 -19 17.5 -19 17.5 -17.203125 
C 17.5 -16.109375 16.796875 -16.109375 15.09375 -16.109375 
C 10.5 -16.109375 10.203125 -15.421875 10.203125 -14.640625 
C 10.203125 -13.453125 14.703125 3.421875 15.296875 5.6875 
C 16.40625 2.890625 19.09375 -1 24.296875 -1 
C 35.59375 -1 47.796875 13.671875 47.796875 28.34375 
C 47.796875 37.515625 42.59375 44 35.09375 44 
C 28.703125 44 23.296875 37.8125 22.203125 36.421875 
C 21.40625 41.40625 17.5 44 13.5 44 
C 10.59375 44 8.296875 42.609375 6.40625 38.8125 
C 4.59375 35.21875 3.203125 29.140625 3.203125 28.734375 
C 3.203125 28.34375 3.59375 27.84375 4.296875 27.84375 
C 5.09375 27.84375 5.203125 27.9375 5.796875 30.234375 
C 7.296875 36.125 9.203125 42.015625 13.203125 42.015625 
C 15.5 42.015625 16.296875 40.421875 16.296875 37.453125 
C 16.296875 35.078125 16 34.078125 15.59375 32.296875 
z
M 21.59375 31.140625 
C 22.296875 33.921875 25.09375 36.828125 26.703125 38.21875 
C 27.796875 39.21875 31.09375 42.015625 34.90625 42.015625 
C 39.296875 42.015625 41.296875 37.625 41.296875 32.4375 
C 41.296875 27.640625 38.5 16.359375 36 11.171875 
C 33.5 5.78125 28.90625 1 24.296875 1 
C 17.5 1 16.40625 9.578125 16.40625 9.984375 
C 16.40625 10.28125 16.59375 11.078125 16.703125 11.578125 
z
" id="CMMI12-112"/>
    </defs>
    <g style="fill:#262626;" transform="translate(136.776685 17.6016)scale(0.12 -0.12)">
     <use transform="scale(0.996264)" xlink:href="#CMSSI17-116"/>
     <use transform="translate(33.831567 0)scale(0.996264)" xlink:href="#CMSSI17-97"/>
     <use transform="translate(76.151033 0)scale(0.996264)" xlink:href="#CMSSI17-114"/>
     <use transform="translate(108.060806 0)scale(0.996264)" xlink:href="#CMSSI17-103"/>
     <use transform="translate(154.904429 0)scale(0.996264)" xlink:href="#CMSSI17-101"/>
     <use transform="translate(196.543252 0)scale(0.996264)" xlink:href="#CMSSI17-116"/>
     <use transform="translate(261.603931 0)scale(0.996264)" xlink:href="#CMSSI17-98"/>
     <use transform="translate(309.808874 0)scale(0.996264)" xlink:href="#CMSSI17-105"/>
     <use transform="translate(331.989597 0)scale(0.996264)" xlink:href="#CMSSI17-116"/>
     <use transform="translate(365.821164 0)scale(0.996264)" xlink:href="#CMSSI17-115"/>
     <use transform="translate(432.963819 0)scale(0.996264)" xlink:href="#CMR17-48"/>
     <use transform="translate(478.654296 0)scale(0.996264)" xlink:href="#CMSY10-106"/>
     <use transform="translate(506.32838 0)scale(0.996264)" xlink:href="#CMR17-49"/>
     <use transform="translate(552.018858 0)scale(0.996264)" xlink:href="#CMSY10-106"/>
     <use transform="translate(579.692942 0)scale(0.996264)" xlink:href="#CMR17-50"/>
     <use transform="translate(625.383419 0)scale(0.996264)" xlink:href="#CMSY10-106"/>
     <use transform="translate(653.057504 0)scale(0.996264)" xlink:href="#CMR17-51"/>
     <use transform="translate(792.435319 0)scale(0.996264)" xlink:href="#CMSSI17-78"/>
     <use transform="translate(889.725951 0)scale(0.996264)" xlink:href="#CMSSI17-61"/>
     <use transform="translate(993.822999 0)scale(0.996264)" xlink:href="#CMR17-53"/>
     <use transform="translate(16.285153 -100.622665)scale(0.996264)" xlink:href="#CMSSI17-116"/>
     <use transform="translate(50.116719 -100.622665)scale(0.996264)" xlink:href="#CMSSI17-101"/>
     <use transform="translate(91.755541 -100.622665)scale(0.996264)" xlink:href="#CMSSI17-109"/>
     <use transform="translate(165.984796 -100.622665)scale(0.996264)" xlink:href="#CMSSI17-112"/>
     <use transform="translate(216.792178 -100.622665)scale(0.996264)" xlink:href="#CMSSI17-101"/>
     <use transform="translate(258.431 -100.622665)scale(0.996264)" xlink:href="#CMSSI17-114"/>
     <use transform="translate(290.340772 -100.622665)scale(0.996264)" xlink:href="#CMSSI17-97"/>
     <use transform="translate(335.262693 -100.622665)scale(0.996264)" xlink:href="#CMSSI17-116"/>
     <use transform="translate(369.09426 -100.622665)scale(0.996264)" xlink:href="#CMSSI17-117"/>
     <use transform="translate(417.299203 -100.622665)scale(0.996264)" xlink:href="#CMSSI17-114"/>
     <use transform="translate(449.208975 -100.622665)scale(0.996264)" xlink:href="#CMSSI17-101"/>
     <use transform="translate(490.847797 -100.622665)scale(0.996264)" xlink:href="#CMSSI17-115"/>
     <use transform="translate(585.664461 -100.622665)scale(0.996264)" xlink:href="#CMR17-61"/>
     <use transform="translate(685.053258 -100.622665)scale(0.996264)" xlink:href="#CMR17-49"/>
     <use transform="translate(730.743735 -100.622665)scale(0.996264)" xlink:href="#CMMI12-58"/>
     <use transform="translate(757.840912 -100.622665)scale(0.996264)" xlink:href="#CMR17-48"/>
     <use transform="translate(803.531389 -100.622665)scale(0.996264)" xlink:href="#CMSY10-106"/>
     <use transform="translate(831.205474 -100.622665)scale(0.996264)" xlink:href="#CMR17-49"/>
     <use transform="translate(876.895951 -100.622665)scale(0.996264)" xlink:href="#CMMI12-58"/>
     <use transform="translate(903.993128 -100.622665)scale(0.996264)" xlink:href="#CMR17-48"/>
     <use transform="translate(949.683605 -100.622665)scale(0.996264)" xlink:href="#CMSY10-106"/>
     <use transform="translate(977.35769 -100.622665)scale(0.996264)" xlink:href="#CMR17-49"/>
     <use transform="translate(1023.048167 -100.622665)scale(0.996264)" xlink:href="#CMMI12-58"/>
     <use transform="translate(1050.145344 -100.622665)scale(0.996264)" xlink:href="#CMR17-48"/>
     <use transform="translate(1095.835821 -100.622665)scale(0.996264)" xlink:href="#CMSY10-106"/>
     <use transform="translate(1123.509906 -100.622665)scale(0.996264)" xlink:href="#CMR17-49"/>
     <use transform="translate(1169.200383 -100.622665)scale(0.996264)" xlink:href="#CMMI12-58"/>
     <use transform="translate(1196.29756 -100.622665)scale(0.996264)" xlink:href="#CMR17-48"/>
     <use transform="translate(1241.988037 -100.622665)scale(0.996264)" xlink:href="#CMSY10-106"/>
     <use transform="translate(1269.662122 -100.622665)scale(0.996264)" xlink:href="#CMR17-49"/>
     <use transform="translate(1315.352599 -100.622665)scale(0.996264)" xlink:href="#CMMI12-58"/>
     <use transform="translate(1342.449776 -100.622665)scale(0.996264)" xlink:href="#CMR17-48"/>
     <use transform="translate(1388.140253 -100.622665)scale(0.996264)" xlink:href="#CMSY10-106"/>
     <use transform="translate(1415.814338 -100.622665)scale(0.996264)" xlink:href="#CMR17-49"/>
     <use transform="translate(1461.504815 -100.622665)scale(0.996264)" xlink:href="#CMMI12-58"/>
     <use transform="translate(1488.601992 -100.622665)scale(0.996264)" xlink:href="#CMR17-48"/>
     <use transform="translate(1534.29247 -100.622665)scale(0.996264)" xlink:href="#CMSY10-106"/>
     <use transform="translate(1561.966554 -100.622665)scale(0.996264)" xlink:href="#CMR17-49"/>
     <use transform="translate(1607.657031 -100.622665)scale(0.996264)" xlink:href="#CMMI12-58"/>
     <use transform="translate(1634.754208 -100.622665)scale(0.996264)" xlink:href="#CMR17-50"/>
     <use transform="translate(1680.444686 -100.622665)scale(0.996264)" xlink:href="#CMSY10-106"/>
     <use transform="translate(1708.11877 -100.622665)scale(0.996264)" xlink:href="#CMR17-49"/>
     <use transform="translate(1753.809247 -100.622665)scale(0.996264)" xlink:href="#CMMI12-58"/>
     <use transform="translate(1780.906425 -100.622665)scale(0.996264)" xlink:href="#CMR17-50"/>
     <use transform="translate(1826.596902 -100.622665)scale(0.996264)" xlink:href="#CMSY10-106"/>
     <use transform="translate(1854.270986 -100.622665)scale(0.996264)" xlink:href="#CMR17-49"/>
     <use transform="translate(1899.961463 -100.622665)scale(0.996264)" xlink:href="#CMMI12-58"/>
     <use transform="translate(1927.058641 -100.622665)scale(0.996264)" xlink:href="#CMR17-50"/>
     <use transform="translate(1972.749118 -100.622665)scale(0.996264)" xlink:href="#CMSY10-106"/>
     <use transform="translate(2000.423202 -100.622665)scale(0.996264)" xlink:href="#CMR17-49"/>
     <use transform="translate(2046.11368 -100.622665)scale(0.996264)" xlink:href="#CMMI12-58"/>
     <use transform="translate(2073.210857 -100.622665)scale(0.996264)" xlink:href="#CMR17-50"/>
     <use transform="translate(2212.588672 -100.622665)scale(0.996264)" xlink:href="#CMMI12-84"/>
     <use transform="translate(2269.763716 -115.56658)scale(0.697382)" xlink:href="#CMMI12-112"/>
     <use transform="translate(2332.207363 -100.622665)scale(0.996264)" xlink:href="#CMR17-61"/>
     <use transform="translate(2431.59616 -100.622665)scale(0.996264)" xlink:href="#CMR17-49"/>
     <use transform="translate(2477.286637 -100.622665)scale(0.996264)" xlink:href="#CMMI12-58"/>
     <use transform="translate(2504.383814 -100.622665)scale(0.996264)" xlink:href="#CMR17-48"/>
    </g>
   </g>
   <g id="legend_1">
    <g id="line2d_31">
     <path d="M 81 60.02 
L 101 60.02 
" style="fill:none;stroke:#4c72b0;stroke-linecap:round;stroke-width:1.75;"/>
    </g>
    <g id="line2d_32"/>
    <g id="text_18">
     <!-- Farita SLT -->
     <defs>
      <path d="M 45.59375 31 
L 45.59375 37.078125 
L 17.203125 37.078125 
L 17.203125 62 
L 29.40625 62 
C 30.59375 62 31.796875 62 33 62 
L 49.5 62 
L 49.5 68.359375 
L 8.796875 68.359375 
L 8.796875 -0.5 
L 17.203125 -0.5 
L 17.203125 31 
z
" id="CMSS17-70"/>
      <path d="M 37.59375 27.984375 
C 37.59375 37.375 30.90625 43.875 21.90625 43.875 
C 17.5 43.875 12.703125 43.078125 7.203125 39.890625 
L 7.796875 33.359375 
C 10.296875 35.125 14.59375 38 21.796875 38 
C 26.90625 38 30 34.0625 30 27.84375 
L 30 24 
C 14 24 4 19.34375 4 11.34375 
C 4 7.203125 6.5 -1 14.796875 -1 
C 16.296875 -1 24.40625 -1 30.203125 3.390625 
L 30.203125 -0.296875 
L 37.59375 -0.296875 
z
M 30 12.75 
C 30 10.953125 30 8.5625 27 6.78125 
C 24.40625 5.078125 21.09375 5.078125 19.703125 5.078125 
C 14.703125 5.078125 11.296875 7.984375 11.296875 11.625 
C 11.296875 18.921875 26.90625 18.921875 30 18.921875 
z
" id="CMSS17-97"/>
      <path d="M 14.90625 21.296875 
C 14.90625 30.703125 21.796875 37 30.59375 37 
L 30.59375 43.578125 
C 24.203125 43.578125 18.203125 40.390625 14.59375 35.203125 
L 14.59375 43.09375 
L 7.5 43.09375 
L 7.5 0 
L 14.90625 0 
z
" id="CMSS17-114"/>
      <path d="M 15.296875 65.359375 
L 6.90625 65.359375 
L 6.90625 57 
L 15.296875 57 
z
M 14.796875 42.796875 
L 7.40625 42.796875 
L 7.40625 0 
L 14.796875 0 
z
" id="CMSS17-105"/>
      <path d="M 16.703125 37 
L 29.703125 37 
L 29.703125 42.765625 
L 16.703125 42.765625 
L 16.703125 55 
L 9.59375 55 
L 9.59375 42.765625 
L 1.703125 42.765625 
L 1.703125 37 
L 9.40625 37 
L 9.40625 11.703125 
C 9.40625 6 10.703125 -1 17.296875 -1 
C 22.296875 -1 26.90625 0.390625 31.296875 2.6875 
L 29.703125 8.5625 
C 27.296875 6.46875 24.40625 5.265625 21.296875 5.265625 
C 16.90625 5.265625 16.703125 10.875 16.703125 13.375 
z
" id="CMSS17-116"/>
      <path d="M 43.703125 65.140625 
C 39.296875 67.71875 34.5 70 26.40625 70 
C 13.5 70 5.203125 60.609375 5.203125 51.03125 
C 5.203125 47.265625 6.296875 43.015625 10.203125 38.671875 
C 14.09375 34.3125 18.5 33.140625 24.09375 31.765625 
C 26.40625 31.15625 30.296875 30.0625 31 29.78125 
C 36.59375 27.609375 39.296875 22.5625 39.296875 17.8125 
C 39.296875 11.59375 34.40625 4.96875 25.703125 4.96875 
C 22.703125 4.96875 13.90625 4.96875 5.59375 12.796875 
L 4.203125 4.96875 
C 12.40625 -1 21.296875 -2 25.796875 -2 
C 38.09375 -2 46.90625 7.625 46.90625 18.53125 
C 46.90625 22.5 45.703125 27.546875 41.5 32.203125 
C 37.40625 36.671875 33.796875 37.65625 25.59375 39.828125 
C 20.90625 41.03125 17.90625 41.828125 15.40625 44.890625 
C 13.703125 47.078125 12.796875 49.15625 12.796875 51.828125 
C 12.796875 57.390625 17.59375 63.4375 26.40625 63.4375 
C 30.796875 63.4375 36.5 62.53125 42.296875 57.1875 
z
" id="CMSS17-83"/>
      <path d="M 26.09375 6.46875 
C 24.90625 6.46875 23.703125 6.46875 22.5 6.46875 
L 17.203125 6.46875 
L 17.203125 69 
L 8.796875 69 
L 8.796875 0 
L 46.90625 0 
L 46.90625 6.46875 
z
" id="CMSS17-76"/>
      <path d="M 36.203125 62 
L 44.5 62 
C 45.703125 62 46.90625 62 48.09375 62 
L 60.59375 62 
L 60.59375 68.375 
L 3.40625 68.375 
L 3.40625 62 
L 15.90625 62 
C 17.09375 62 18.296875 62 19.5 62 
L 27.796875 62 
L 27.796875 -0.5 
L 36.203125 -0.5 
z
" id="CMSS17-84"/>
     </defs>
     <g style="fill:#262626;" transform="translate(109 63.52)scale(0.1 -0.1)">
      <use transform="scale(0.996264)" xlink:href="#CMSS17-70"/>
      <use transform="translate(50.687105 0)scale(0.996264)" xlink:href="#CMSS17-97"/>
      <use transform="translate(93.006572 0)scale(0.996264)" xlink:href="#CMSS17-114"/>
      <use transform="translate(124.916345 0)scale(0.996264)" xlink:href="#CMSS17-105"/>
      <use transform="translate(147.097068 0)scale(0.996264)" xlink:href="#CMSS17-116"/>
      <use transform="translate(180.928634 0)scale(0.996264)" xlink:href="#CMSS17-97"/>
      <use transform="translate(257.079668 0)scale(0.996264)" xlink:href="#CMSS17-83"/>
      <use transform="translate(309.128184 0)scale(0.996264)" xlink:href="#CMSS17-76"/>
      <use transform="translate(352.008034 0)scale(0.996264)" xlink:href="#CMSS17-84"/>
     </g>
    </g>
    <g id="line2d_33">
     <path d="M 81 73.957178 
L 101 73.957178 
" style="fill:none;stroke:#55a868;stroke-linecap:round;stroke-width:1.75;"/>
    </g>
    <g id="line2d_34"/>
    <g id="text_19">
     <!-- Shiariashi -->
     <defs>
      <path d="M 40.90625 29.546875 
C 40.90625 35.8125 39.40625 44.0625 28.09375 44.0625 
C 21.796875 44.0625 17.703125 40.984375 14.796875 37.609375 
L 14.796875 69.5 
L 7.40625 69.5 
L 7.40625 0.5 
L 15 0.5 
L 15 24.578125 
C 15 30.828125 17.40625 38 24.203125 38 
C 33 38 33.296875 32.125 33.296875 28.734375 
L 33.296875 0.5 
L 40.90625 0.5 
z
" id="CMSS17-104"/>
      <path d="M 32.203125 41.046875 
C 26.296875 43.859375 21.703125 43.859375 18.703125 43.859375 
C 11.59375 43.859375 3.09375 41.375 3.09375 31.296875 
C 3.09375 21.234375 14.09375 19.03125 17.09375 18.421875 
C 21.703125 17.53125 26.796875 16.53125 26.796875 11.5625 
C 26.796875 5.265625 19.59375 5.265625 18.296875 5.265625 
C 14.296875 5.265625 8.796875 6.359375 3.796875 9.96875 
L 2.59375 3.28125 
C 8.296875 0 13.796875 -1 18.40625 -1 
C 30.703125 -1 33.796875 6.5 33.796875 12.203125 
C 33.796875 17.09375 31 20.390625 29.09375 21.890625 
C 25.796875 24.5 24.59375 24.796875 16.40625 26.5 
C 15 26.703125 10.09375 27.796875 10.09375 32.28125 
C 10.09375 38 16.40625 38 17.796875 38 
C 24.296875 38 28.296875 35.984375 31 34.5 
z
" id="CMSS17-115"/>
     </defs>
     <g style="fill:#262626;" transform="translate(109 77.457178)scale(0.1 -0.1)">
      <use transform="scale(0.996264)" xlink:href="#CMSS17-83"/>
      <use transform="translate(52.048516 0)scale(0.996264)" xlink:href="#CMSS17-104"/>
      <use transform="translate(100.253459 0)scale(0.996264)" xlink:href="#CMSS17-105"/>
      <use transform="translate(122.434182 0)scale(0.996264)" xlink:href="#CMSS17-97"/>
      <use transform="translate(164.753649 0)scale(0.996264)" xlink:href="#CMSS17-114"/>
      <use transform="translate(196.663422 0)scale(0.996264)" xlink:href="#CMSS17-105"/>
      <use transform="translate(218.844145 0)scale(0.996264)" xlink:href="#CMSS17-97"/>
      <use transform="translate(263.766065 0)scale(0.996264)" xlink:href="#CMSS17-115"/>
      <use transform="translate(299.679607 0)scale(0.996264)" xlink:href="#CMSS17-104"/>
      <use transform="translate(347.88455 0)scale(0.996264)" xlink:href="#CMSS17-105"/>
     </g>
    </g>
   </g>
  </g>
 </g>
 <defs>
  <clipPath id="p710c9ab25a">
   <rect height="298.98" width="446.4" x="72" y="47.52"/>
  </clipPath>
 </defs>
</svg>
